/* XPM */
static char *_f0ba933581e418fd32909e31f43da248SyVxX9p3BGJsIhy[] = {
/* columns rows colors chars-per-pixel */
"96 96 7 1 ",
"  c #070606",
". c gray4",
"X c gray6",
"o c #1E1E1E",
"O c #222222",
"+ c #213121",
"@ c #383734",
/* pixels */
"................................................................................................",
"................................................................................................",
"................................................................................................",
"...@@@@@@@@@...@@@@@@@@@...XXXXXXXXXXXXXXXXXXXXXXXXXXXXXXXXXXXXXXXXXX...@@@@@@@@@...@@@@@@@@@...",
"...@@@@@@@@@...@@@@@@@@@...XXXXXXXXXXXXXXXXXXXXXXXXXXXXXXXXXXXXXXXXXX...@@@@@@@@@...@@@@@@@@@...",
"...@@@@@@@@@...@@@@@@@@@...XXXXXXXXXXXXXXXXXXXXXXXXXXXXXXXXXXXXXXXXXX...@@@@@@@@@...@@@@@@@@@...",
"...@@@@@@@@@@@@@@@@@@@@@..................XXXXXXXXXXXX..................@@@@@@@@@@@@@@@@@@@@@...",
"...@@@@@@@@@@@@@@@@@@@@@..................XXXXXXXXXXXX..................@@@@@@@@@@@@@@@@@@@@@...",
"...@@@@@@@@@@@@@@@@@@@@@..................XXXXXXXXXXXX..................@@@@@@@@@@@@@@@@@@@@@...",
"...@@@@@@@@@@@@@@@@@@@@@...            ......XXXXXX......OOOOOOOOOOOO...@@@@@@@@@@@@@@@@@@@@@...",
"...@@@@@@@@@@@@@@@@@@@@@...            ......XXXXXX......OOOOOOOOOOOO...@@@@@@@@@@@@@@@@@@@@@...",
"...@@@@@@@@@@@@@@@@@@@@@...            ......XXXXXX......OOOOOOOOOOOO...@@@@@@@@@@@@@@@@@@@@@...",
"......@@@@@@@@@@@@@@@@@@...XXXXXX+++++++++............   OOOOOOOOOOOO...@@@@@@@@@@@@@@@@@@......",
"......@@@@@@@@@@@@@@@@@@...XXXXXX+++++++++............   OOOOOOOOOOOO...@@@@@@@@@@@@@@@@@@......",
"......@@@@@@@@@@@@@@@@@@...XXXXXX+++++++++............   OOOOOOOOOOOO...@@@@@@@@@@@@@@@@@@......",
"...@@@@@@@@@@@@@@@@@@@@@...OOOOOOOOOOOO++++++OOO   +++      OOOOOOOOO...@@@@@@@@@@@@@@@@@@@@@...",
"...@@@@@@@@@@@@@@@@@@@@@...OOOOOOOOOOOO++++++OOO   +++      OOOOOOOOO...@@@@@@@@@@@@@@@@@@@@@...",
"...@@@@@@@@@@@@@@@@@@@@@...OOOOOOOOOOOO++++++OOO   +++      OOOOOOOOO...@@@@@@@@@@@@@@@@@@@@@...",
"...@@@@@@@@@@@@@@@@@@@@@...OOOOOOOOO++++++OOOOOO      +++            ...@@@@@@@@@@@@@@@@@@@@@...",
"...@@@@@@@@@@@@@@@@@@@@@...OOOOOOOOO++++++OOOOOO      +++            ...@@@@@@@@@@@@@@@@@@@@@...",
"...@@@@@@@@@@@@@@@@@@@@@...OOOOOOOOO++++++OOOOOO      +++            ...@@@@@@@@@@@@@@@@@@@@@...",
"...@@@@@@@@@@@@@@@@@@...OOOOOOOOOOOO+++OOOOOO      XXX+++OOOOOOOOOOOOOOO...@@@@@@@@@@@@@@@@@@...",
"...@@@@@@@@@@@@@@@@@@...OOOOOOOOOOOO+++OOOOOO      XXX+++OOOOOOOOOOOOOOO...@@@@@@@@@@@@@@@@@@...",
"...@@@@@@@@@@@@@@@@@@...OOOOOOOOOOOO+++OOOOOO      XXX+++OOOOOOOOOOOOOOO...@@@@@@@@@@@@@@@@@@...",
".....................OOOOOOOOOOOOOOOOOOOOOOOO   XXX++++++OOOOOOOOOOOOOOOOOO.....................",
".....................OOOOOOOOOOOOOOOOOOOOOOOO   XXX++++++OOOOOOOOOOOOOOOOOO.....................",
".....................OOOOOOOOOOOOOOOOOOOOOOOO   XXX++++++OOOOOOOOOOOOOOOOOO.....................",
"...XXX...+++OOOOOO   OOOOOOOOOOOOOOOOOOOOOOOO   XXX+++OOOOOOOOOOOOOOOOOOOOO   OOOOOOOOO...XXX...",
"...XXX...+++OOOOOO   OOOOOOOOOOOOOOOOOOOOOOOO   XXX+++OOOOOOOOOOOOOOOOOOOOO   OOOOOOOOO...XXX...",
"...XXX...+++OOOOOO   OOOOOOOOOOOOOOOOOOOOOOOO   XXX+++OOOOOOOOOOOOOOOOOOOOO   OOOOOOOOO...XXX...",
"...XXX...OOO+++OOO   OOOOOOOOOOOOOOOOOOOOOOOO   OOO+++OOOOOOOOOOOOOOOOOOOOO      OOOOOO...XXX...",
"...XXX...OOO+++OOO   OOOOOOOOOOOOOOOOOOOOOOOO   OOO+++OOOOOOOOOOOOOOOOOOOOO      OOOOOO...XXX...",
"...XXX...OOO+++OOO   OOOOOOOOOOOOOOOOOOOOOOOO   OOO+++OOOOOOOOOOOOOOOOOOOOO      OOOOOO...XXX...",
"...XXX...OOOOOOOOO   ++++++++++++   +++   +++   OOOOOOOOOOOOOOOOOOOOOOOOOOO   +++   +++...XXX...",
"...XXX...OOOOOOOOO   ++++++++++++   +++   +++   OOOOOOOOOOOOOOOOOOOOOOOOOOO   +++   +++...XXX...",
"...XXX...OOOOOOOOO   ++++++++++++   +++   +++   OOOOOOOOOOOOOOOOOOOOOOOOOOO   +++   +++...XXX...",
"...XXX...   OOOOOO   OOO+++++++++OOO+++OOOOOO      OOOOOOOOOOOOOOOOOOOOO      ++++++   ...XXX...",
"...XXX...   OOOOOO   OOO+++++++++OOO+++OOOOOO      OOOOOOOOOOOOOOOOOOOOO      ++++++   ...XXX...",
"...XXX...   OOOOOO   OOO+++++++++OOO+++OOOOOO      OOOOOOOOOOOOOOOOOOOOO      ++++++   ...XXX...",
"...XXX......         OOOOOOOOO+++OOOOOOOOOOOOOOO                           OOOOOO+++......XXX...",
"...XXX......         OOOOOOOOO+++OOOOOOOOOOOOOOO                           OOOOOO+++......XXX...",
"...XXX......         OOOOOOOOO+++OOOOOOOOOOOOOOO                           OOOOOO+++......XXX...",
"...XXXXXX......   OOOOOOOOOOOOOOO+++OOOOOOOOOOOOOOO   OOOOOOOOOOOOOOO   OOOOOOOOO......XXXXXX...",
"...XXXXXX......   OOOOOOOOOOOOOOO+++OOOOOOOOOOOOOOO   OOOOOOOOOOOOOOO   OOOOOOOOO......XXXXXX...",
"...XXXXXX......   OOOOOOOOOOOOOOO+++OOOOOOOOOOOOOOO   OOOOOOOOOOOOOOO   OOOOOOOOO......XXXXXX...",
"...XXXXXXXXX...   OOOOOOOOOOOOOOOOOOOOOOOOooooooooo   OOOOOOOOOOOOOOO   OOOOOOOOO...XXXXXXXXX...",
"...XXXXXXXXX...   OOOOOOOOOOOOOOOOOOOOOOOOooooooooo   OOOOOOOOOOOOOOO   OOOOOOOOO...XXXXXXXXX...",
"...XXXXXXXXX...   OOOOOOOOOOOOOOOOOOOOOOOOooooooooo   OOOOOOOOOOOOOOO   OOOOOOOOO...XXXXXXXXX...",
"...XXXXXXXXX...      ooooooooooooooooooooooooooo   +++   ++++++++++++      oooooo...XXXXXXXXX...",
"...XXXXXXXXX...      ooooooooooooooooooooooooooo   +++   ++++++++++++      oooooo...XXXXXXXXX...",
"...XXXXXXXXX...      ooooooooooooooooooooooooooo   +++   ++++++++++++      oooooo...XXXXXXXXX...",
"...XXXXXX......         ooooooooooooooooooooo      OOO+++OOOOOO++++++OOO      ooo......XXXXXX...",
"...XXXXXX......         ooooooooooooooooooooo      OOO+++OOOOOO++++++OOO      ooo......XXXXXX...",
"...XXXXXX......         ooooooooooooooooooooo      OOO+++OOOOOO++++++OOO      ooo......XXXXXX...",
"...XXX......OOOOOOOOO                           OOOOOO++++++OOOOOO+++OOOOOO         ......XXX...",
"...XXX......OOOOOOOOO                           OOOOOO++++++OOOOOO+++OOOOOO         ......XXX...",
"...XXX......OOOOOOOOO                           OOOOOO++++++OOOOOO+++OOOOOO         ......XXX...",
"...XXX...OOOOOOOOOOOO   OOOOOOOOOOOOOOOOOO   OOOOOOOOOOOO+++OOOOOO+++OOOOOOOOO      OOO...XXX...",
"...XXX...OOOOOOOOOOOO   OOOOOOOOOOOOOOOOOO   OOOOOOOOOOOO+++OOOOOO+++OOOOOOOOO      OOO...XXX...",
"...XXX...OOOOOOOOOOOO   OOOOOOOOOOOOOOOOOO   OOOOOOOOOOOO+++OOOOOO+++OOOOOOOOO      OOO...XXX...",
"...XXX...OOOOOOoooooo   OOOOOOOOOOOOOOOOOO   +++OOOOOOOOOOOOOOOOOOOOOOOOOOOOOO      OOO...XXX...",
"...XXX...OOOOOOoooooo   OOOOOOOOOOOOOOOOOO   +++OOOOOOOOOOOOOOOOOOOOOOOOOOOOOO      OOO...XXX...",
"...XXX...OOOOOOoooooo   OOOOOOOOOOOOOOOOOO   +++OOOOOOOOOOOOOOOOOOOOOOOOOOOOOO      OOO...XXX...",
"...XXX...ooooooooo++++++++++++            +++++++++OOOOOOOOOOOOOOOOOOOOOOOO            ...XXX...",
"...XXX...ooooooooo++++++++++++            +++++++++OOOOOOOOOOOOOOOOOOOOOOOO            ...XXX...",
"...XXX...ooooooooo++++++++++++            +++++++++OOOOOOOOOOOOOOOOOOOOOOOO            ...XXX...",
"...XXX...oooooo++++++++++++XXXOOOOOOOOOOOOOOO++++++OOOOOOOOOOOOOOOOOOOOO      OOOOOO   ...XXX...",
"...XXX...oooooo++++++++++++XXXOOOOOOOOOOOOOOO++++++OOOOOOOOOOOOOOOOOOOOO      OOOOOO   ...XXX...",
"...XXX...oooooo++++++++++++XXXOOOOOOOOOOOOOOO++++++OOOOOOOOOOOOOOOOOOOOO      OOOOOO   ...XXX...",
".....................OOOOOOOOOOOOOOOOOOOOOOOO+++++++++                     .....................",
".....................OOOOOOOOOOOOOOOOOOOOOOOO+++++++++                     .....................",
".....................OOOOOOOOOOOOOOOOOOOOOOOO+++++++++                     .....................",
"...@@@@@@@@@@@@@@@@@@...OOOOOOOOOOOOOOOOOOOOO+++XXXOOOOOOOOOOOOOOOOOOOOO...@@@@@@@@@@@@@@@@@@...",
"...@@@@@@@@@@@@@@@@@@...OOOOOOOOOOOOOOOOOOOOO+++XXXOOOOOOOOOOOOOOOOOOOOO...@@@@@@@@@@@@@@@@@@...",
"...@@@@@@@@@@@@@@@@@@...OOOOOOOOOOOOOOOOOOOOO+++XXXOOOOOOOOOOOOOOOOOOOOO...@@@@@@@@@@@@@@@@@@...",
"...@@@@@@@@@@@@@@@@@@@@@...OOOOOOOOOOOOOOOooo   +++OOOOOOOOOOOOOOOOOO...@@@@@@@@@@@@@@@@@@@@@...",
"...@@@@@@@@@@@@@@@@@@@@@...OOOOOOOOOOOOOOOooo   +++OOOOOOOOOOOOOOOOOO...@@@@@@@@@@@@@@@@@@@@@...",
"...@@@@@@@@@@@@@@@@@@@@@...OOOOOOOOOOOOOOOooo   +++OOOOOOOOOOOOOOOOOO...@@@@@@@@@@@@@@@@@@@@@...",
"...@@@@@@@@@@@@@@@@@@@@@...OOOOOOOOOOOOooo   XXX+++OOOOOOOOOOOOOOOOOO...@@@@@@@@@@@@@@@@@@@@@...",
"...@@@@@@@@@@@@@@@@@@@@@...OOOOOOOOOOOOooo   XXX+++OOOOOOOOOOOOOOOOOO...@@@@@@@@@@@@@@@@@@@@@...",
"...@@@@@@@@@@@@@@@@@@@@@...OOOOOOOOOOOOooo   XXX+++OOOOOOOOOOOOOOOOOO...@@@@@@@@@@@@@@@@@@@@@...",
"......@@@@@@@@@@@@@@@@@@...ooooooooooooooo............OOOOOOOOOOOOooo...@@@@@@@@@@@@@@@@@@......",
"......@@@@@@@@@@@@@@@@@@...ooooooooooooooo............OOOOOOOOOOOOooo...@@@@@@@@@@@@@@@@@@......",
"......@@@@@@@@@@@@@@@@@@...ooooooooooooooo............OOOOOOOOOOOOooo...@@@@@@@@@@@@@@@@@@......",
"...@@@@@@@@@@@@@@@@@@@@@...            ......XXXXXX......oooooooooooo...@@@@@@@@@@@@@@@@@@@@@...",
"...@@@@@@@@@@@@@@@@@@@@@...            ......XXXXXX......oooooooooooo...@@@@@@@@@@@@@@@@@@@@@...",
"...@@@@@@@@@@@@@@@@@@@@@...            ......XXXXXX......oooooooooooo...@@@@@@@@@@@@@@@@@@@@@...",
"...@@@@@@@@@@@@@@@@@@@@@..................XXXXXXXXXXXX..................@@@@@@@@@@@@@@@@@@@@@...",
"...@@@@@@@@@@@@@@@@@@@@@..................XXXXXXXXXXXX..................@@@@@@@@@@@@@@@@@@@@@...",
"...@@@@@@@@@@@@@@@@@@@@@..................XXXXXXXXXXXX..................@@@@@@@@@@@@@@@@@@@@@...",
"...@@@@@@@@@...@@@@@@@@@...XXXXXXXXXXXXXXXXXXXXXXXXXXXXXXXXXXXXXXXXXX...@@@@@@@@@...@@@@@@@@@...",
"...@@@@@@@@@...@@@@@@@@@...XXXXXXXXXXXXXXXXXXXXXXXXXXXXXXXXXXXXXXXXXX...@@@@@@@@@...@@@@@@@@@...",
"...@@@@@@@@@...@@@@@@@@@...XXXXXXXXXXXXXXXXXXXXXXXXXXXXXXXXXXXXXXXXXX...@@@@@@@@@...@@@@@@@@@...",
"................................................................................................",
"................................................................................................",
"................................................................................................"
};
