/* XPM */
static char * C:\Users\qatar\Desktop\Sans titre_xpm[] = {
"32 32 106 2",
"  	c #220941",
". 	c #2A0947",
"+ 	c #31094E",
"@ 	c #3D0B5C",
"# 	c #330950",
"$ 	c #330951",
"% 	c #2B0948",
"& 	c #25083E",
"* 	c #1E063A",
"= 	c #1F073C",
"- 	c #21083F",
"; 	c #20073E",
"> 	c #390A57",
", 	c #2D094B",
"' 	c #270945",
") 	c #210940",
"! 	c #3C0A5B",
"~ 	c #280946",
"{ 	c #250944",
"] 	c #1F063B",
"^ 	c #200840",
"/ 	c #331746",
"( 	c #2E094C",
"_ 	c #2E094B",
": 	c #290247",
"< 	c #260945",
"[ 	c #1F073E",
"} 	c #4D2271",
"| 	c #210840",
"1 	c #20083E",
"2 	c #1F063C",
"3 	c #240942",
"4 	c #5B5273",
"5 	c #1F023F",
"6 	c #20073D",
"7 	c #1F073D",
"8 	c #260944",
"9 	c #240943",
"0 	c #2F0C4E",
"a 	c #260742",
"b 	c #250741",
"c 	c #260843",
"d 	c #321A43",
"e 	c #1D053A",
"f 	c #270845",
"g 	c #2F084B",
"h 	c #250943",
"i 	c #220841",
"j 	c #2F094C",
"k 	c #564B75",
"l 	c #1F013E",
"m 	c #2D094A",
"n 	c #2A0948",
"o 	c #20043F",
"p 	c #290847",
"q 	c #2C094A",
"r 	c #290846",
"s 	c #7764B4",
"t 	c #47136E",
"u 	c #21083E",
"v 	c #1F073B",
"w 	c #3F0F62",
"x 	c #30084C",
"y 	c #3B0A5A",
"z 	c #2C0949",
"A 	c #380A56",
"B 	c #2D1546",
"C 	c #210941",
"D 	c #5F2E7D",
"E 	c #1C053B",
"F 	c #310A4F",
"G 	c #360A54",
"H 	c #220940",
"I 	c #160038",
"J 	c #340952",
"K 	c #1C003B",
"L 	c #555065",
"M 	c #311844",
"N 	c #250443",
"O 	c #3B0A59",
"P 	c #4D376C",
"Q 	c #2F054C",
"R 	c #410B61",
"S 	c #3A0A58",
"T 	c #320A50",
"U 	c #1A0038",
"V 	c #361A4F",
"W 	c #3C0B5C",
"X 	c #380A57",
"Y 	c #320A51",
"Z 	c #58486F",
"` 	c #180036",
" .	c #30094D",
"..	c #390A58",
"+.	c #290947",
"@.	c #3E0B5D",
"#.	c #400B60",
"$.	c #32094F",
"%.	c #300A4E",
"&.	c #3C035C",
"*.	c #5F467B",
"=.	c #3D0B5D",
"-.	c #360A55",
";.	c #3E035F",
">.	c #360A53",
",.	c #350953",
"      . + + + @ # $ %                 & * = - ; * * * * * * * * ",
"    . > + + + , ' '                   ) = * * * * * * * * * * * ",
"  . ! + % ~ { '                 = ] ] ^ / * * * * * * * * * * * ",
"( + _ % : <               [ } | - = 1 ) 2 ] * * * * * * * * * * ",
"+ _ + 3 4 5                 |     6 1   - - - * 7 - = - 7 * * * ",
"+ 8 9             0                 1 6 * ) = a b c       d e * ",
"+ +                                           f + g h     i ) - ",
"+ + _ 8                                       ' + + j           ",
"+ + + ~                     k l - =       ~ ' + m n h ' '       ",
"+ + + _                     o - ]         , p n n m n q j       ",
"+ + + ~       -               ; )         r s t + + j + j {     ",
"+ + + 9                 u ] v             m w x + + + + n {     ",
"y , z         7 -       6 * *       ~ ~ ' m + + + + + m n       ",
"A ~ ~   1 ) 7 * *     - * * *       ~ m + + + + h { { 8         ",
"9     1 )   6 * * * * ] 7 = |         , + + ( n {               ",
"1 |       u * * * * * * 1 -           { h n n                   ",
"B       u * * * * * * *               ' + j n                   ",
"i       * * * * * * 1 )             j + m C                     ",
"    6 ] * * * D E                 F G ) %                 1 -   ",
"  * * * * * H I                   $ J n             v   1 * v 6 ",
"] e * * * * K L                 ) + _ n             1 ] - * 6   ",
"* M e * * * * * 1             N + O {               1 * * 1 ;   ",
"* * * * * *                   P Q R 9               | ; |       ",
"* * * * -                     C + @ @ %                       | ",
"* * * -                       ' q > + +               - 6 6     ",
"* * -                   | 8 C j G S @ T               U * 6     ",
"* 7 |                 | V n + + W X @ Y             6 Z ` -   * ",
"1 ) 6               ' . m S + G S  .R ..8         6 - -     6   ",
")                 ~ +.@.#.#.@ R  .+ ..#.$.%._     -           = ",
"] -         '   ~ 8 &.*.#.R  .+ + =.R -.S h   ; * 6 ;         ; ",
"          n + n 8 R #.;.#.> + + >...h 8 8 '   ; -   = -         ",
"          j + n + =.#... .+ + G ..,.8 - ;     6     -           "};
