/* XPM */
static char * C:\Users\qatar\Desktop\Sans titre_xpm[] = {
"64 64 21 1",
" 	c #220941",
".	c #31094E",
"+	c #400B60",
"@	c #3C0D45",
"#	c #1E063A",
"$	c #4B2856",
"%	c #7C3CAC",
"&	c #AEA5CC",
"*	c #3C105C",
"=	c #492D4D",
"-	c #7E74A4",
";	c #682E9F",
">	c #979AE2",
",	c #4B2E5C",
"'	c #8F49B6",
")	c #B1B2BB",
"!	c #4A2D55",
"~	c #7F67A6",
"{	c #563867",
"]	c #A18BBE",
"^	c #9D8DB8",
"        ......+++.+..                 @###     #################",
"       ........+.... .                 ######  #################",
"      ........+.....                   #########################",
"     ..+.......                          #######################",
"    .+.....  ...                   ##  # #######################",
"   ..+... .                     ######  $#######################",
". ..... .                      ###### #    #####################",
".... . . ..                 %      ##   ########################",
".......  &                         ##   ########################",
".. ...                             ##         ###   #    #######",
"..  .                               #  ### #######        ######",
"...                *                #  ###   ##.#.#.       =####",
"....                                          # ...#.        ###",
"....                                           .....            ",
".....                                           .....           ",
".......                                        .......          ",
".......                                       ..... .           ",
".......                      -   ###       . ... . .   . .      ",
".......                          #        ... . . ... ...       ",
"........                       ###         . . . . . . ...      ",
".......                        ##         . .;....... ... .     ",
".......       #               #            .;>;...........      ",
".......                    ##             ...;........... .     ",
"......                   #####             ............. .      ",
"..+ ..                   #####            ...............       ",
"++ ..         ###        #####       . . . ........... . .      ",
"++  .     #  #####      ######        ........... . . .         ",
".. ..    #   #####     #######       . .........                ",
".     ###    ######### ##### #        ....... . .               ",
"             ############  #           ....... .                ",
"            #############  #          . . . .                   ",
" ##        ##############                  . .                  ",
" #        ##############                .. ..                   ",
",        ###############               ..... .                  ",
"        ###############              .....                      ",
"        ############                .....                       ",
"       ###########                 ...  .                  #    ",
"    ###########'                   ++.   .                 ##   ",
"  ########### ##                   ++..              #   ####  #",
"  ##########                      .... .            ##   ###### ",
" ###########  )                   .....             ###   ###   ",
"###############                   .. . .              ## ####   ",
"###!##############              .... .               ########   ",
"################               ...++                 #####   #  ",
"############                   ~..++.                ## #       ",
"############                   ...++                   #        ",
"#########                       ..+.++                         #",
"#########                       ..+++...                        ",
"#######                         ..+.....                        ",
"#######                        .. +.....               #####    ",
"#####                          ....++...               ####     ",
"#####                     .   ...+.++++               #####     ",
"#####                   {   ....+++.+++              ##]###   ##",
"###                      .......+.+..++             # ####    ##",
"###                   . . ..........++..           #  #     ##  ",
"    ##               . ...++...+++..++++.          # #          ",
"#                   . .++++++.++.....+++.   ..    #            #",
"                   . .++++++++++.....++++..+.                 ##",
"###                 .+++++++.......+++++++.     ###  #        ##",
" ##          .   . .++^+++++......++++ ...    #####  #          ",
"          . ...   ++++++++.........+. . . .   ###   # #         ",
"           ... . .++++++++++.....++.                ##          ",
"          ..... ...+++++.........++..         #      #          ",
"           ... ...++++.........++...   ###    #                 "};
