/* XPM */
static char * C:\Users\qatar\Desktop\Sans titre_xpm[] = {
"32 32 635 2",
"  	c #2F0B40",
". 	c #260941",
"+ 	c #2C0946",
"@ 	c #34094D",
"# 	c #34094E",
"$ 	c #3E0A5A",
"% 	c #380A52",
"& 	c #370950",
"* 	c #2D0947",
"= 	c #260A41",
"- 	c #28113F",
"; 	c #332738",
"> 	c #47382C",
", 	c #2B1235",
"' 	c #23063A",
") 	c #25073D",
"! 	c #25083F",
"~ 	c #340938",
"{ 	c #2D0A40",
"] 	c #220941",
"^ 	c #290947",
"/ 	c #350952",
"( 	c #31094E",
"_ 	c #30094E",
": 	c #31094F",
"< 	c #220B40",
"[ 	c #2A1F39",
"} 	c #695D40",
"| 	c #AF7E70",
"1 	c #CEB59D",
"2 	c #4C3A34",
"3 	c #201435",
"4 	c #1E063A",
"5 	c #310938",
"6 	c #2D0A41",
"7 	c #280946",
"8 	c #380A56",
"9 	c #2D094B",
"0 	c #260944",
"a 	c #220B3F",
"b 	c #504E53",
"c 	c #B3B0A5",
"d 	c #F1E6C2",
"e 	c #EFBB95",
"f 	c #F4E6DC",
"g 	c #A95E4B",
"h 	c #694818",
"i 	c #251A37",
"j 	c #360A4A",
"k 	c #30094D",
"l 	c #2E094B",
"m 	c #2B0948",
"n 	c #382453",
"o 	c #280D45",
"p 	c #220C3F",
"q 	c #545357",
"r 	c #DFDFDF",
"s 	c #FEFEFE",
"t 	c #F5F4F3",
"u 	c #A39B96",
"v 	c #E2B695",
"w 	c #F4A638",
"x 	c #E4BA27",
"y 	c #736224",
"z 	c #251B37",
"A 	c #380A4D",
"B 	c #2D094A",
"C 	c #564D6F",
"D 	c #291746",
"E 	c #251341",
"F 	c #3F3938",
"G 	c #CCC9C3",
"H 	c #FEFEFC",
"I 	c #EFEEEC",
"J 	c #8C8886",
"K 	c #51280C",
"L 	c #EBA015",
"M 	c #FFE77C",
"N 	c #FFF6B0",
"O 	c #E9DE8C",
"P 	c #777259",
"Q 	c #261C38",
"R 	c #1F073C",
"S 	c #20083E",
"T 	c #20073D",
"U 	c #290B48",
"V 	c #291843",
"W 	c #454246",
"X 	c #B4AC84",
"Y 	c #FCF5C2",
"Z 	c #E8DFB9",
"` 	c #7D7265",
" .	c #630D05",
"..	c #BD4A0E",
"+.	c #FCAC19",
"@.	c #FFE3B0",
"#.	c #FFFEF7",
"$.	c #FFFDF2",
"%.	c #E8DDD1",
"&.	c #685755",
"*.	c #260C40",
"=.	c #260843",
"-.	c #230942",
";.	c #2D1641",
">.	c #1F073A",
",.	c #220A41",
"'.	c #281842",
").	c #423839",
"!.	c #A07B3C",
"~.	c #F9E09E",
"{.	c #F0CC4E",
"].	c #A9581E",
"^.	c #C01B01",
"/.	c #EB5631",
"(.	c #FDC6AF",
"_.	c #FFE5C3",
":.	c #FFD081",
"<.	c #FFFAF3",
"[.	c #FFFCFB",
"}.	c #FD9B91",
"|.	c #AE2217",
"1.	c #312042",
"2.	c #2D084A",
"3.	c #21083F",
"4.	c #330A3C",
"5.	c #270945",
"6.	c #332B43",
"7.	c #574530",
"8.	c #C28D06",
"9.	c #F9B52E",
"0.	c #F6CE90",
"a.	c #976D45",
"b.	c #E41A00",
"c.	c #EB472D",
"d.	c #F9CDB8",
"e.	c #FFFEFC",
"f.	c #FFD28F",
"g.	c #FFE3BF",
"h.	c #FEF4F2",
"i.	c #FA5D53",
"j.	c #C01403",
"k.	c #2E153E",
"l.	c #340B3F",
"m.	c #2A0948",
"n.	c #25193B",
"o.	c #5E371C",
"p.	c #D89807",
"q.	c #FED25D",
"r.	c #FDE6BF",
"s.	c #B7B1AB",
"t.	c #661916",
"u.	c #DA3806",
"v.	c #EDBA6D",
"w.	c #FDEEDE",
"x.	c #FFFEFD",
"y.	c #FFD595",
"z.	c #FFC360",
"A.	c #FFD7C5",
"B.	c #FE3820",
"C.	c #D23102",
"D.	c #443540",
"E.	c #2C0C49",
"F.	c #271630",
"G.	c #962102",
"H.	c #E69D2A",
"I.	c #FFF8B1",
"J.	c #FBF39D",
"K.	c #927234",
"L.	c #BD1C00",
"M.	c #FB7202",
"N.	c #FDC22D",
"O.	c #FA8D49",
"P.	c #FFBCAE",
"Q.	c #FFF1EB",
"R.	c #FFDDA3",
"S.	c #FFD99C",
"T.	c #FEB38F",
"U.	c #FE5505",
"V.	c #F98200",
"W.	c #9C6814",
"X.	c #321C45",
"Y.	c #230E41",
"Z.	c #482C26",
"`.	c #E35F01",
" +	c #F9BE37",
".+	c #FFFB7D",
"++	c #FCED61",
"@+	c #D3751F",
"#+	c #F75A00",
"$+	c #FFA626",
"%+	c #FFE99C",
"&+	c #FEA442",
"*+	c #FD6108",
"=+	c #FE865E",
"-+	c #FFF2E1",
";+	c #FD968E",
">+	c #FE5600",
",+	c #FF9B00",
"'+	c #ED9002",
")+	c #6C321E",
"!+	c #342349",
"~+	c #373047",
"{+	c #7E6114",
"]+	c #FAC414",
"^+	c #FFE172",
"/+	c #FFF9AD",
"(+	c #FFD164",
"_+	c #FE710A",
":+	c #FF9D0B",
"<+	c #FFD895",
"[+	c #FFFAEE",
"}+	c #FFA864",
"|+	c #FE9500",
"1+	c #FEB567",
"2+	c #FFFCF6",
"3+	c #FEF8F7",
"4+	c #F76F64",
"5+	c #FD4700",
"6+	c #FD7D00",
"7+	c #FF8500",
"8+	c #D42F03",
"9+	c #411A2F",
"0+	c #31104D",
"a+	c #250944",
"b+	c #400B57",
"c+	c #2E094C",
"d+	c #230D41",
"e+	c #3F3937",
"f+	c #C8B530",
"g+	c #FEE43F",
"h+	c #FFF2C1",
"i+	c #FFEDD4",
"j+	c #FE8039",
"k+	c #FD8900",
"l+	c #FFBF59",
"m+	c #FFF8EA",
"n+	c #FFFBF9",
"o+	c #FE8D6E",
"p+	c #FF8204",
"q+	c #FFE396",
"r+	c #FFFFFC",
"s+	c #F9EAE6",
"t+	c #EC4030",
"u+	c #FE4500",
"v+	c #FE8A00",
"w+	c #FFBA01",
"x+	c #FA8001",
"y+	c #832F0F",
"z+	c #342646",
"A+	c #3C0B53",
"B+	c #220940",
"C+	c #21093F",
"D+	c #281E39",
"E+	c #948B4C",
"F+	c #FAF288",
"G+	c #FFF482",
"H+	c #FFF7E3",
"I+	c #FEA785",
"J+	c #FE7005",
"K+	c #FFAA21",
"L+	c #FFE8C3",
"M+	c #FFFFFE",
"N+	c #FBE8E4",
"O+	c #D45746",
"P+	c #F96C15",
"Q+	c #FFEFAD",
"R+	c #FFFDF6",
"S+	c #F0C696",
"T+	c #D92807",
"U+	c #FC4000",
"V+	c #FD9200",
"W+	c #FFC700",
"X+	c #F2B801",
"Y+	c #634524",
"Z+	c #250B43",
"`+	c #2F0A43",
" @	c #21083E",
".@	c #24123F",
"+@	c #59564D",
"@@	c #E9E7D1",
"#@	c #FFFEF2",
"$@	c #FFFDEA",
"%@	c #FFCAB4",
"&@	c #FD5F1A",
"*@	c #FE9200",
"=@	c #FFCA49",
"-@	c #FFFBEE",
";@	c #FFFAF8",
">@	c #FA9888",
",@	c #921C03",
"'@	c #DB9029",
")@	c #FFFAB8",
"!@	c #FFEBB1",
"~@	c #EFB81A",
"{@	c #BD2900",
"]@	c #F73600",
"^@	c #FF9B01",
"/@	c #FFCA01",
"(@	c #D19301",
"_@	c #352B37",
":@	c #230B41",
"<@	c #2C093E",
"[@	c #2C2339",
"}@	c #B29E98",
"|@	c #FDF8F7",
"1@	c #F5EFEF",
"2@	c #F1D7D1",
"3@	c #FE643F",
"4@	c #FD6F00",
"5@	c #FFB507",
"6@	c #FFE566",
"7@	c #FFFDF7",
"8@	c #FDC9BD",
"9@	c #FD3F1B",
"0@	c #DB3301",
"a@	c #F1B739",
"b@	c #FFF27F",
"c@	c #FFDA2C",
"d@	c #ECBE03",
"e@	c #972A00",
"f@	c #EB3200",
"g@	c #FFA500",
"h@	c #FDC901",
"i@	c #A0650E",
"j@	c #2E253E",
"k@	c #371746",
"l@	c #261C37",
"m@	c #A53428",
"n@	c #E4847E",
"o@	c #956461",
"p@	c #E5B3AA",
"q@	c #FC3D28",
"r@	c #FE8902",
"s@	c #FFD91F",
"t@	c #FFEF80",
"u@	c #FFECE2",
"v@	c #FE694D",
"w@	c #FC4D00",
"x@	c #FE7002",
"y@	c #FFD430",
"z@	c #FFE019",
"A@	c #FFE006",
"B@	c #EEC904",
"C@	c #763001",
"D@	c #D43700",
"E@	c #FEBC00",
"F@	c #EFBB01",
"G@	c #603E2C",
"H@	c #230C41",
"I@	c #1E0739",
"J@	c #801C0C",
"K@	c #CC2801",
"L@	c #B24E47",
"M@	c #FACAC2",
"N@	c #FE3620",
"O@	c #FD930F",
"P@	c #FFED33",
"Q@	c #FFED82",
"R@	c #FFA186",
"S@	c #FC5104",
"T@	c #FF7F00",
"U@	c #FFAE03",
"V@	c #FFE921",
"W@	c #FFE60B",
"X@	c #FFE90E",
"Y@	c #F8D804",
"Z@	c #BE8401",
"`@	c #DF9402",
" #	c #FEE700",
".#	c #D3B106",
"+#	c #3B343E",
"@#	c #1F073B",
"##	c #1F0A3A",
"$#	c #552622",
"%#	c #E23201",
"&#	c #F38E83",
"*#	c #FDC8C2",
"=#	c #FC4E17",
"-#	c #FEB71B",
";#	c #FFF34C",
">#	c #FCAA2E",
",#	c #FB5A0A",
"'#	c #FD8A00",
")#	c #FEB601",
"!#	c #FFD507",
"~#	c #FFF435",
"{#	c #FFF015",
"]#	c #FFF012",
"^#	c #FDC703",
"/#	c #FC9D00",
"(#	c #FCC002",
"_#	c #FEF302",
":#	c #BB940A",
"<#	c #2D233A",
"[#	c #2D0A3F",
"}#	c #1E083A",
"|#	c #371A26",
"1#	c #E06F34",
"2#	c #FED6C9",
"3#	c #F0827D",
"4#	c #F76903",
"5#	c #FFDF4D",
"6#	c #FECE57",
"7#	c #FB3A06",
"8#	c #FB6600",
"9#	c #FFC101",
"0#	c #FFD401",
"a#	c #FFE60E",
"b#	c #FFF85A",
"c#	c #FFF529",
"d#	c #FED916",
"e#	c #F76802",
"f#	c #FC5500",
"g#	c #FFBB00",
"h#	c #FBE701",
"i#	c #88600D",
"j#	c #26163E",
"k#	c #20073E",
"l#	c #2B083A",
"m#	c #220A3C",
"n#	c #2C1E2D",
"o#	c #D1BA59",
"p#	c #FDCEB6",
"q#	c #F53023",
"r#	c #FA4412",
"s#	c #FFDA99",
"t#	c #FC7642",
"u#	c #FC2A00",
"v#	c #FC4201",
"w#	c #FFBD01",
"x#	c #FFE806",
"y#	c #FFEF1A",
"z#	c #FFFB83",
"A#	c #FFDF47",
"B#	c #FD7508",
"C#	c #FC5B00",
"D#	c #FEA301",
"E#	c #FFE900",
"F#	c #F6E600",
"G#	c #634F16",
"H#	c #2A0739",
"I#	c #2A1240",
"J#	c #261D31",
"K#	c #B79315",
"L#	c #FE9A23",
"M#	c #FF5200",
"N#	c #FE7215",
"O#	c #FFD5A4",
"P#	c #FB5939",
"Q#	c #FD3A00",
"R#	c #FC4700",
"S#	c #FCA104",
"T#	c #FFF521",
"U#	c #FFFA3D",
"V#	c #FFE47B",
"W#	c #FD8029",
"X#	c #FE7400",
"Y#	c #FFAA00",
"Z#	c #FFE502",
"`#	c #FFEC00",
" $	c #EBDE02",
".$	c #43391F",
"+$	c #1E063B",
"@$	c #211137",
"#$	c #A3860C",
"$$	c #FECB05",
"%$	c #FFB201",
"&$	c #FEC108",
"*$	c #FEDC74",
"=$	c #FD5C24",
"-$	c #FE4D00",
";$	c #FE5C00",
">$	c #FFC211",
",$	c #FFFC66",
"'$	c #FFFD8E",
")$	c #FFBE34",
"!$	c #FEAB00",
"~$	c #FFD213",
"{$	c #FFF044",
"]$	c #FFF146",
"^$	c #FFD104",
"/$	c #D8C403",
"($	c #2B232B",
"_$	c #210840",
":$	c #210940",
"<$	c #887616",
"[$	c #FCE015",
"}$	c #FFDA07",
"|$	c #FFDB02",
"1$	c #FFD743",
"2$	c #FE6112",
"3$	c #FD5F00",
"4$	c #FF8D00",
"5$	c #FFDF2D",
"6$	c #FFFEBF",
"7$	c #FFFDDA",
"8$	c #FFE641",
"9$	c #FFF273",
"0$	c #FFFDBE",
"a$	c #FFFEE0",
"b$	c #FF8D08",
"c$	c #C49402",
"d$	c #221431",
"e$	c #330A3E",
"f$	c #675C1E",
"g$	c #F9EA2D",
"h$	c #FFEB1C",
"i$	c #FFE409",
"j$	c #FFD705",
"k$	c #FC9301",
"l$	c #FE9E01",
"m$	c #FFBA00",
"n$	c #FFE041",
"o$	c #FFFEE8",
"p$	c #FFFEF1",
"q$	c #FFFCD5",
"r$	c #FFFFF8",
"s$	c #FFFDF5",
"t$	c #FFF6A3",
"u$	c #F8AA1D",
"v$	c #DB4801",
"w$	c #6C3913",
"x$	c #210D3C",
"y$	c #484429",
"z$	c #EAE238",
"A$	c #FFF432",
"B$	c #FFF11E",
"C$	c #FFE705",
"D$	c #FFD400",
"E$	c #FFBC02",
"F$	c #FFD94A",
"G$	c #FFFEEE",
"H$	c #FFFFFF",
"I$	c #FFF5EF",
"J$	c #FFDC90",
"K$	c #F5EC12",
"L$	c #A97406",
"M$	c #3F1820",
"N$	c #33234C",
"O$	c #1F083B",
"P$	c #340B3E",
"Q$	c #24133A",
"R$	c #817C22",
"S$	c #E0D325",
"T$	c #FEF022",
"U$	c #FFEE11",
"V$	c #FFEA00",
"W$	c #FFE400",
"X$	c #FFA700",
"Y$	c #FFD925",
"Z$	c #FFF78B",
"`$	c #FFFBBA",
" %	c #FFE9CB",
".%	c #F9A36F",
"+%	c #D5B609",
"@%	c #817C11",
"#%	c #261C2E",
"$%	c #4E3E65",
"%%	c #220C3D",
"&%	c #320939",
"*%	c #2B093D",
"=%	c #210E3B",
"-%	c #4D401E",
";%	c #B8A708",
">%	c #F8E502",
",%	c #FFEE01",
"'%	c #FFDA01",
")%	c #FF9D00",
"!%	c #FFDF01",
"~%	c #FFF501",
"{%	c #FBD503",
"]%	c #DD8307",
"^%	c #91470E",
"/%	c #3B293E",
"(%	c #270E41",
"_%	c #240943",
":%	c #363039",
"<%	c #AEA40C",
"[%	c #FDF20B",
"}%	c #FFC203",
"|%	c #FF9C00",
"1%	c #FEE701",
"2%	c #E9DD02",
"3%	c #9F800D",
"4%	c #3C272B",
"5%	c #35194D",
"6%	c #400C5F",
"7%	c #350A53",
"8%	c #300A4E",
"9%	c #2B0949",
"0%	c #2B083C",
"a%	c #260945",
"b%	c #2C0E48",
"c%	c #4C472D",
"d%	c #E2DB37",
"e%	c #FFB828",
"f%	c #FDD131",
"g%	c #D2CA0A",
"h%	c #5E5825",
"i%	c #301B45",
"j%	c #3D0C5C",
"k%	c #3D0B5D",
"l%	c #340A53",
"m%	c #360A54",
"n%	c #1F073D",
"o%	c #330A3D",
"p%	c #3F0B5E",
"q%	c #3B1456",
"r%	c #8F893C",
"s%	c #EDE289",
"t%	c #B9B86C",
"u%	c #433A35",
"v%	c #31164A",
"w%	c #370A55",
"x%	c #380A57",
"y%	c #250943",
"z%	c #410D3D",
"A%	c #3C0C3E",
"B%	c #420C46",
"C%	c #440C4A",
"D%	c #400C44",
"E%	c #4C0E57",
"F%	c #4D0E5A",
"G%	c #3D192B",
"H%	c #584824",
"I%	c #42193C",
"J%	c #470D4F",
"K%	c #490D52",
"L%	c #460C4E",
"M%	c #3E0C40",
"N%	c #3B0C3C",
"O%	c #3B0B3A",
"P%	c #3B0C3B",
"Q%	c #3B0C3D",
"R%	c #450E3C",
"  . . + @ @ # $ % & * . . . . = - ; > , ' ) ! ) ' ' ' ' ' ' ' ~ ",
"{ ] ^ / ( _ ( : ^ ^ ] ] ] ] < [ } | 1 2 3 4 4 4 4 4 4 4 4 4 4 5 ",
"6 7 8 ( 9 ^ 0 ^ ] ] ] ] ] a b c d e f g h i 4 4 4 4 4 4 4 4 4 5 ",
"j k l m n o ] ] ] ] ] ] p q r s t u v w x y z 4 4 4 4 4 4 4 4 5 ",
"A B k 0 C D ] ] ] ] ] E F G H I J K L M N O P Q R S T S R 4 4 5 ",
"A 7 0 ] ] ] ] ] ] U V W X Y Z `  ...+.@.#.$.%.&.*.=.-.] ] ;.>.5 ",
"A k -.] ] ] ] ] ,.'.).!.~.{.].^./.(._.:.<.[.}.|.1.2.0 ] ] ] 3.4.",
"A ( l 5.] ] ] ,.6.7.8.9.0.a.b.c.d.e.e.f.g.h.i.j.k.k B ] ] ] ] l.",
"A ( ( m.] ] ] n.o.p.q.r.s.t.u.v.w.x.e.y.z.A.B.C.D.E.0 7 5.] ] l.",
"A ( ( 9 ] ] ,.F.G.H.I.J.K.L.M.N.O.P.Q.R.S.T.U.V.W.X.m.l B -.] l.",
"A ( ( m.] ] Y.Z.`. +.+++@+#+$+%+&+*+=+-+[.;+>+,+'+)+!+( 9 0 ] l.",
"A ( ( 0 ] ] ~+{+]+^+/+(+_+:+<+[+}+|+1+2+3+4+5+6+7+8+9+0+m.a+] l.",
"b+c+B ] ] d+e+f+g+h+i+j+k+l+m+n+o+p+q+r+s+t+u+v+w+x+y+z+^ ] ] l.",
"A+7 ^ B+C+D+E+F+G+H+I+J+K+L+M+N+O+P+Q+R+S+T+U+V+W+X+Y+Z+] ] ] l.",
"`+] ]  @.@+@@@#@$@%@&@*@=@-@;@>@,@'@)@!@~@{@]@^@/@(@_@:@] ] ] l.",
"<@3.] ] [@}@|@1@2@3@4@5@6@7@8@9@0@a@b@c@d@e@f@g@h@i@j@] ] ] ] l.",
"k@] ] ] l@m@n@o@p@q@r@s@t@u@v@w@x@y@z@A@B@C@D@E@F@G@H@] ] ] ] l.",
"{ ] ] B+I@J@K@L@M@N@O@P@Q@R@S@T@U@V@W@X@Y@Z@`@ #.#+#H@] ] ] ] l.",
"{ B+T @###$#%#&#*#=#-#;#>#,#'#)#!#~#{#]#^#/#(#_#:#<#] ] ] T 3.l.",
"[#4 4 4 }#|#1#2#3#4#5#6#7#8#9#0#a#b#c#d#e#f#g#h#i#j#R ] k#4 R 4.",
"l#m#4 4 4 n#o#p#q#r#s#t#u#v#w#x#y#z#A#B#C#D#E#F#G#B+S R S 4 S l.",
"H#I#@#4 4 J#K#L#M#N#O#P#Q#R#S#T#U#V#W#X#Y#Z#`# $.$,.T 4 +$S S l.",
"H#4 4 4 4 @$#$$$%$&$*$=$-$;$>$,$'$)$!$~${$]$^$/$($,._$S _$] ] l.",
"H#4 4 4 S :$<$[$}$|$1$2$3$4$5$6$7$8$9$0$a$s#b$c$d$] ] ] ] ] ] e$",
"H#4 4 S ] < f$g$h$i$j$k$l$m$n$o$p$q$r$s$t$u$v$w$x$] ] 3.T k#] l.",
"H#4 k#] ] d+y$z$A$B$C$D$0#E$F$G$H$H$I$J$K$L$M$x$] ] B+N$O$S ] P$",
"H#R _$] ] ] Q$R$S$T$U$V$W$X$Y$Z$`$ %.%+%@%#%] ] ] B+k#$%%%_$_$&%",
"*%_$S ] ] ] ] =%-%;%>%,%'%)%!%~%{%]%^%/%(%] _%] ] S 3._$] ] 3.l.",
"<@] ] ] ] ] ] ] ,.:%<%[%}%|%1%2%3%4%5%6%7%8%9%] :$_$] ] ] ] ] &%",
"0%S ] ] ] -.7 -.a%b%c%d%e%f%g%h%i%j%k%l%m%a%] n%+$S S ] ] ] ] o%",
"{ ] ] ] ] 9%( m.m.p%q%r%s%t%u%v%w%x%5.a+a+y%] S _$] R _$] ] ] l.",
"z%A%A%A%A%B%C%D%C%E%F%G%H%I%C%J%K%L%M%N%O%A%A%P%A%A%Q%A%A%A%A%R%"};
