/* XPM */
static char * C:\Users\qatar\Desktop\Sans titre_xpm[] = {
"32 32 540 2",
"  	c #350B3F",
". 	c #240941",
"+ 	c #290945",
"@ 	c #32094E",
"# 	c #3C0A5A",
"$ 	c #360A53",
"% 	c #350952",
"& 	c #3F0D47",
"* 	c #66173A",
"= 	c #8F2135",
"- 	c #8D2135",
"; 	c #53103E",
"> 	c #6E193A",
", 	c #6A1731",
"' 	c #250941",
") 	c #29083F",
"! 	c #20063A",
"~ 	c #22073D",
"{ 	c #23083F",
"] 	c #2B0839",
"^ 	c #340B3F",
"/ 	c #220941",
"( 	c #280947",
"_ 	c #340952",
": 	c #32094F",
"< 	c #30094D",
"[ 	c #30094E",
"} 	c #290947",
"| 	c #290946",
"1 	c #5F153E",
"2 	c #70121A",
"3 	c #271C1C",
"4 	c #362020",
"5 	c #881D1D",
"6 	c #B82425",
"7 	c #4C1A1B",
"8 	c #3B0F35",
"9 	c #21083F",
"0 	c #350B3B",
"a 	c #1E063A",
"b 	c #2A0739",
"c 	c #340B40",
"d 	c #270945",
"e 	c #370A55",
"f 	c #2E094B",
"g 	c #2A0947",
"h 	c #250944",
"i 	c #210941",
"j 	c #8C1C35",
"k 	c #851818",
"l 	c #292222",
"m 	c #2C2A2A",
"n 	c #6B1E1E",
"o 	c #2E1B1B",
"p 	c #512627",
"q 	c #5E0C30",
"r 	c #851C31",
"s 	c #60142C",
"t 	c #2D0839",
"u 	c #3C0B49",
"v 	c #2B0948",
"w 	c #3A2754",
"x 	c #2A1147",
"y 	c #3C0D40",
"z 	c #952035",
"A 	c #832022",
"B 	c #8D1D1D",
"C 	c #2A1212",
"D 	c #121212",
"E 	c #252525",
"F 	c #1C1C1C",
"G 	c #272525",
"H 	c #7F1212",
"I 	c #631616",
"J 	c #5F0D0E",
"K 	c #611530",
"L 	c #3E0B4B",
"M 	c #2C094A",
"N 	c #260945",
"O 	c #52486A",
"P 	c #2E1E4A",
"Q 	c #290A41",
"R 	c #8A1D2C",
"S 	c #402323",
"T 	c #282626",
"U 	c #242424",
"V 	c #2B2B2B",
"W 	c #232323",
"X 	c #171717",
"Y 	c #141414",
"Z 	c #1D1C1C",
"` 	c #151616",
" .	c #181414",
"..	c #6C0A0E",
"+.	c #440D3A",
"@.	c #23083D",
"#.	c #1F073C",
"$.	c #20083E",
"%.	c #20073D",
"&.	c #1F073D",
"*.	c #6C102A",
"=.	c #9A0C0C",
"-.	c #300B0B",
";.	c #292929",
">.	c #272727",
",.	c #161616",
"'.	c #151515",
").	c #131313",
"!.	c #371F1F",
"~.	c #70171A",
"{.	c #380A38",
"].	c #25073F",
"^.	c #260742",
"/.	c #260843",
"(.	c #230942",
"_.	c #2D1541",
":.	c #20083B",
"<.	c #31094E",
"[.	c #240943",
"}.	c #230941",
"|.	c #8B1D36",
"1.	c #5C1B1B",
"2.	c #151414",
"3.	c #2A2A2A",
"4.	c #303030",
"5.	c #211917",
"6.	c #242323",
"7.	c #131111",
"8.	c #4E0F0F",
"9.	c #5F0C0C",
"0.	c #63141B",
"a.	c #2D0A42",
"b.	c #2E084B",
"c.	c #210840",
"d.	c #2B093D",
"e.	c #2F094C",
"f.	c #280946",
"g.	c #250940",
"h.	c #59101B",
"i.	c #4B0F0F",
"j.	c #141212",
"k.	c #302320",
"l.	c #8F7368",
"m.	c #B48071",
"n.	c #382C29",
"o.	c #1E1E1E",
"p.	c #110F0F",
"q.	c #601111",
"r.	c #740F23",
"s.	c #440F3C",
"t.	c #2D094B",
"u.	c #2D0A40",
"v.	c #2B0949",
"w.	c #490E3C",
"x.	c #84191C",
"y.	c #281111",
"z.	c #181A1A",
"A.	c #CDD424",
"B.	c #D2AFA1",
"C.	c #3A2727",
"D.	c #1C1B1A",
"E.	c #1A1A19",
"F.	c #201515",
"G.	c #580E10",
"H.	c #4F0D39",
"I.	c #31094D",
"J.	c #2D094A",
"K.	c #270A41",
"L.	c #6E1730",
"M.	c #700C14",
"N.	c #6B0908",
"O.	c #624F2F",
"P.	c #C5A092",
"Q.	c #A98B7E",
"R.	c #B27063",
"S.	c #8D6962",
"T.	c #2C2321",
"U.	c #0E0E0E",
"V.	c #441212",
"W.	c #7A0909",
"X.	c #6C172E",
"Y.	c #310A48",
"Z.	c #2A0948",
"`.	c #400E40",
" +	c #8E1B29",
".+	c #481615",
"++	c #68443A",
"@+	c #C8998C",
"#+	c #CE9C90",
"$+	c #AC7B6F",
"%+	c #432A25",
"&+	c #161313",
"*+	c #0F1010",
"=+	c #471212",
"-+	c #720A0A",
";+	c #7D528C",
">+	c #492471",
",+	c #31094F",
"'+	c #94203A",
")+	c #521818",
"!+	c #231919",
"~+	c #331814",
"{+	c #8C5A4E",
"]+	c #A67A6D",
"^+	c #5D3831",
"/+	c #191A1A",
"(+	c #3B0C0E",
"_+	c #470C12",
":+	c #2B1818",
"<+	c #680D11",
"[+	c #51185C",
"}+	c #330B51",
"|+	c #450C57",
"1+	c #2F094D",
"2+	c #95203A",
"3+	c #511817",
"4+	c #9F6D62",
"5+	c #C29488",
"6+	c #B37062",
"7+	c #C98D7E",
"8+	c #895D52",
"9+	c #6E4C46",
"0+	c #AF1E2B",
"a+	c #C51432",
"b+	c #790F1E",
"c+	c #580A10",
"d+	c #35094C",
"e+	c #410C51",
"f+	c #220940",
"g+	c #851F38",
"h+	c #962A28",
"i+	c #E1B2A3",
"j+	c #D29989",
"k+	c #AF695B",
"l+	c #D89D8D",
"m+	c #D4AD9F",
"n+	c #D3A799",
"o+	c #9F3D3A",
"p+	c #B81027",
"q+	c #850613",
"r+	c #720F15",
"s+	c #360A4C",
"t+	c #250943",
"u+	c #360B42",
"v+	c #20073E",
"w+	c #8E1F35",
"x+	c #7E1717",
"y+	c #995C50",
"z+	c #CB9B8E",
"A+	c #C29186",
"B+	c #C17F71",
"C+	c #C37266",
"D+	c #9C564C",
"E+	c #97121E",
"F+	c #B30F25",
"G+	c #A60F26",
"H+	c #6E0F16",
"I+	c #350A49",
"J+	c #330A3D",
"K+	c #972035",
"L+	c #7F0A0F",
"M+	c #7C1F1E",
"N+	c #CD9C93",
"O+	c #D3988D",
"P+	c #B76460",
"Q+	c #B61429",
"R+	c #77070D",
"S+	c #A30D24",
"T+	c #D41737",
"U+	c #860815",
"V+	c #5E080F",
"W+	c #2F0946",
"X+	c #3D1846",
"Y+	c #26073A",
"Z+	c #921F2A",
"`+	c #73080C",
" @	c #610812",
".@	c #80336B",
"+@	c #843D80",
"@@	c #882F64",
"#@	c #8B0E24",
"$@	c #890707",
"%@	c #9A1519",
"&@	c #920D20",
"*@	c #A51029",
"=@	c #610811",
"-@	c #2F0945",
";@	c #1D0539",
">@	c #2C083B",
",@	c #911F25",
"'@	c #950911",
")@	c #710A14",
"!@	c #353870",
"~@	c #384386",
"{@	c #332951",
"]@	c #461318",
"^@	c #7F0C0F",
"/@	c #AE1F20",
"(@	c #A71228",
"_@	c #870C1D",
":@	c #5E080E",
"<@	c #29093F",
"[@	c #1F073B",
"}@	c #4B2267",
"|@	c #2B0F47",
"1@	c #440F40",
"2@	c #932A44",
"3@	c #49152E",
"4@	c #6D2E0D",
"5@	c #7D300B",
"6@	c #97450A",
"7@	c #893B0C",
"8@	c #984A0F",
"9@	c #810B1C",
"0@	c #9E0A19",
"a@	c #96182D",
"b@	c #202755",
"c@	c #5E1124",
"d@	c #230C40",
"e@	c #3A324F",
"f@	c #952138",
"g@	c #81342F",
"h@	c #5C3A3E",
"i@	c #A95A10",
"j@	c #77320D",
"k@	c #7D380E",
"l@	c #B8630E",
"m@	c #BB660F",
"n@	c #752A12",
"o@	c #970423",
"p@	c #794850",
"q@	c #7F7084",
"r@	c #7E373B",
"s@	c #370B3E",
"t@	c #1F0941",
"u@	c #320939",
"v@	c #220B3C",
"w@	c #1F073A",
"x@	c #23113F",
"y@	c #544F63",
"z@	c #2B0A40",
"A@	c #952329",
"B@	c #804C41",
"C@	c #95604F",
"D@	c #BD690F",
"E@	c #893812",
"F@	c #61240B",
"G@	c #AD5B0F",
"H@	c #BF6A0E",
"I@	c #8D470D",
"J@	c #522421",
"K@	c #B87F71",
"L@	c #EEC7B7",
"M@	c #A48075",
"N@	c #5D102F",
"O@	c #851D33",
"P@	c #400B3D",
"Q@	c #310938",
"R@	c #28113F",
"S@	c #1F063B",
"T@	c #701637",
"U@	c #8D5045",
"V@	c #5F3329",
"W@	c #BB680E",
"X@	c #B05A10",
"Y@	c #5E250B",
"Z@	c #9A4D0F",
"`@	c #BE690E",
" #	c #A75411",
".#	c #562212",
"+#	c #94716B",
"@#	c #A66F62",
"##	c #6D3733",
"$#	c #4E0E38",
"%#	c #8F0528",
"&#	c #830A20",
"*#	c #591235",
"=#	c #22083E",
"-#	c #1E063B",
";#	c #21083E",
">#	c #841735",
",#	c #6B240D",
"'#	c #AF5911",
")#	c #B4600F",
"!#	c #602609",
"~#	c #5B2109",
"{#	c #BD670E",
"]#	c #8F480D",
"^#	c #6B0016",
"/#	c #710205",
"(#	c #AD222E",
"_#	c #C50941",
":#	c #8A0726",
"<#	c #7D1C1E",
"[#	c #2F0B3F",
"}#	c #972039",
"|#	c #57170E",
"1#	c #7E3411",
"2#	c #7F3411",
"3#	c #681B09",
"4#	c #8A0804",
"5#	c #7A350F",
"6#	c #9D500F",
"7#	c #73300F",
"8#	c #87201B",
"9#	c #8F031E",
"0#	c #A01B25",
"a#	c #BF1434",
"b#	c #D20845",
"c#	c #7E0313",
"d#	c #741B22",
"e#	c #2D0B40",
"f#	c #2C093F",
"g#	c #2E0B41",
"h#	c #8B1F2B",
"i#	c #5A1C10",
"j#	c #4E170D",
"k#	c #75310F",
"l#	c #6D270E",
"m#	c #880A03",
"n#	c #6B230D",
"o#	c #6D2B0F",
"p#	c #974B0F",
"q#	c #80390F",
"r#	c #8F0624",
"s#	c #B6083D",
"t#	c #BB073B",
"u#	c #84021D",
"v#	c #630B0F",
"w#	c #3D0E3B",
"x#	c #902122",
"y#	c #682B0E",
"z#	c #82410E",
"A#	c #78340F",
"B#	c #6E2A0A",
"C#	c #63270D",
"D#	c #652A0D",
"E#	c #89450E",
"F#	c #8A380B",
"G#	c #86040C",
"H#	c #78090D",
"I#	c #620E15",
"J#	c #57142E",
"K#	c #250A41",
"L#	c #36264E",
"M#	c #210C3C",
"N#	c #2C0A3F",
"O#	c #260A41",
"P#	c #831831",
"Q#	c #6C2A18",
"R#	c #843C0F",
"S#	c #61230D",
"T#	c #8D430B",
"U#	c #840F07",
"V#	c #8C3416",
"W#	c #7F390E",
"X#	c #61260D",
"Y#	c #8B450D",
"Z#	c #792106",
"`#	c #5C0F27",
" $	c #4D1137",
".$	c #400F3D",
"+$	c #4A3A61",
"@$	c #261240",
"#$	c #2B083A",
"$$	c #330A3C",
"%$	c #3A0835",
"&$	c #7F1816",
"*$	c #591010",
"=$	c #470807",
"-$	c #771116",
";$	c #7B1741",
">$	c #490C0C",
",$	c #621013",
"'$	c #741213",
")$	c #5C0708",
"!$	c #621632",
"~$	c #2D0A3F",
"{$	c #260944",
"]$	c #2F094A",
"^$	c #59113E",
"/$	c #884138",
"($	c #3A2E35",
"_$	c #3D0911",
":$	c #6D1417",
"<$	c #5A1246",
"[$	c #640E21",
"}$	c #4C1F33",
"|$	c #8B1F2F",
"1$	c #610A0D",
"2$	c #6B173E",
"3$	c #210940",
"4$	c #33093B",
"5$	c #2E0A4A",
"6$	c #540F55",
"7$	c #741C27",
"8$	c #945C3E",
"9$	c #503D30",
"0$	c #6A0908",
"a$	c #611134",
"b$	c #340A4E",
"c$	c #6A1142",
"d$	c #5D3B28",
"e$	c #8C5B36",
"f$	c #6D2D1D",
"g$	c #550F39",
"h$	c #2C093E",
"i$	c #400B5D",
"j$	c #76141F",
"k$	c #9F212F",
"l$	c #6B2135",
"m$	c #55131C",
"n$	c #53072C",
"o$	c #36094D",
"p$	c #360A54",
"q$	c #651345",
"r$	c #421526",
"s$	c #842238",
"t$	c #571C31",
"u$	c #4B082D",
"v$	c #480F3B",
"w$	c #400D3D",
"x$	c #450D45",
"y$	c #470D49",
"z$	c #440D43",
"A$	c #4E0F55",
"B$	c #4F0F48",
"C$	c #490F3B",
"D$	c #4A0F3A",
"E$	c #4A0F41",
"F$	c #4A0E4E",
"G$	c #4C0E52",
"H$	c #4A0F46",
"I$	c #630F31",
"J$	c #80132F",
"K$	c #6D0F2C",
"L$	c #400C37",
"M$	c #3F0C3A",
"N$	c #400C3C",
"O$	c #450E3C",
"  . . + @ @ @ # $ % & * = - ; > , ' . ) ! ~ { ~ ! ! ! ! ! ! ! ] ",
"^ / ( _ : < [ : } | 1 2 3 4 5 6 7 8 / 9 0 a a a a a a a a a a b ",
"c d e : f g h | / / i j k l m n o p q r s t a a a a a a a a a b ",
"u [ f v w x / / / y z A B C D E F G H I J K a a a a a a a a a b ",
"L M < N O P / / Q R S T U V W X Y Z `  ...+.@.a #.$.%.$.&.a a b ",
"L } h / / / / / . *.=.-.D ;.>.,.,.'.).W !.~.{.].^./.(./ / _.:.b ",
"L <.[./ / / / / }.|.1.2.3.4.W 5.6.F X 7.8.9.0.a.<.b.N / / / c.d.",
"L <.e.f./ / / / g.h.i.j.V k.l.m.n.o.U p.q.r.s.f.<.< t./ / / / u.",
"L <.<.v./ / / / / w.x.y.z.A.B.A.C.D.E.'.F.G.H.I.J.v.d f.d / / u.",
"L <.<.f (./ / / / K.L.M.N.O.P.Q.R.S.T.U.V.W.X.Y.v.t.Z.f f (./ u.",
"L <.<.v./ / / 9 / / `. +.+++@+#+$+%+&+*+=+-+;+>+<.<.e.<.f N / u.",
"L ,+<.N / / / / / / '+)+!+~+{+]+^+/+(+_+:+<+[+}+<.<.<.<.Z.h / u.",
"|+1+J.}./ / / %.$./ 2+3+4+5+6+7+8+9+0+a+b+c+d+<.< < < J.} / / u.",
"e+f.g f+9 c.$.a a c.g+h+i+j+k+l+m+n+o+p+q+r+s+< d h h t+/ / / u.",
"u+/ / 9 c./ v+a a a w+x+y+z+A+B+C+D+E+F+G+H+I+} h / / / / / / u.",
"J+9 / / / 9 a a a a K+L+M+N+O+P+Q+R+S+T+U+V+W+/ / / / / / / / u.",
"X+/ / / 9 a a a a Y+Z+`+ @.@+@@@#@$@%@&@*@=@-@/ / / / / / / / u.",
"^ / / / a a a ;@a >@,@'@)@!@~@{@]@^@/@(@_@:@<@/ / / / / / / / u.",
"^ f+%.[@a a a }@|@1@2@3@4@5@6@7@8@9@0@a@b@c@<@/ / / / / / %.9 u.",
"^ a a a a a d@e@}.f@g@h@i@j@k@l@m@n@o@p@q@r@s@t@/ / #.f+$.a #.d.",
"u@v@w@a a a x@y@z@A@B@C@D@E@F@G@H@I@J@K@L@M@N@O@P@}.$.#.$.a v+u.",
"Q@R@:.a a a S@S@$.T@U@V@W@X@Y@Z@`@ #.#+#@###$#%#&#*#=#a -#;#$.u.",
"Q@a a a a S@/ / / i >#,#'#)#!#~#)#{#]#^#/#B (#_#:#<#[#$.c./ / u.",
"Q@a a a $./ / / / . }#|#1#2#3#4#5#6#7#8#9#0#a#b#c#d#e#/ / / / f#",
"Q@a a $./ / / / / g#h#i#j#k#l#m#n#o#p#q#r#s#t#u#v#w#/ 9 &.%./ u.",
"Q@a %./ / / / / / g#x#Z@y#z#A#m#B#C#D#E#F#G#H#I#J#K#f+L#M#v+/ N#",
"Q@#.c./ / / / / / O#P#Q#R#S#T#U#V#W#X#Y#Z#`# $.$/ f+$.+$@$c.c.#$",
"$$c.$./ / / / / / / N %$&$*$=$-$;$>$,$'$)$!$[./ / $.9 c./ / 9 ~$",
"J+f+/ / / / / / / {$]$^$/$($_$:$<$[$}$|$1$2$M / 3$9 / / / / / #$",
"4$$./ / / (.f.[.{$5$6$7$8$9$0$a$b$c$d$e$f$g$/ &.-#$.$.f+/ / / h$",
"^ / / / / v <.v } i$j$k$l$m$n$o$p$q$r$s$t$u$/ $.c./ #.c./ / / u.",
"v$w$w$w$w$x$y$z$y$A$B$C$D$D$E$F$G$H$I$J$K$L$w$M$w$w$N$w$w$w$w$O$"};
