/* XPM */
static char * C:\Users\qatar\Desktop\Sans titre_xpm[] = {
"32 32 363 2",
"  	c #370C3F",
". 	c #260941",
"+ 	c #2B0945",
"@ 	c #34094D",
"# 	c #3D0A59",
"$ 	c #380A52",
"% 	c #370951",
"& 	c #2D0948",
"* 	c #270941",
"= 	c #2B083F",
"- 	c #23063A",
"; 	c #25073D",
"> 	c #25083F",
", 	c #2D0839",
"' 	c #340B3F",
") 	c #220941",
"! 	c #280946",
"~ 	c #340952",
"{ 	c #32094F",
"] 	c #31094E",
"^ 	c #320950",
"/ 	c #290947",
"( 	c #230942",
"_ 	c #21083F",
": 	c #1F073C",
"< 	c #1E063A",
"[ 	c #2A0739",
"} 	c #340B40",
"| 	c #270945",
"1 	c #370A55",
"2 	c #2E094B",
"3 	c #2A0948",
"4 	c #260944",
"5 	c #230941",
"6 	c #20073D",
"7 	c #220940",
"8 	c #2E1344",
"9 	c #3C0B49",
"0 	c #30094D",
"a 	c #2B0948",
"b 	c #362252",
"c 	c #291047",
"d 	c #250B44",
"e 	c #451D67",
"f 	c #210840",
"g 	c #20083E",
"h 	c #20083D",
"i 	c #3E0B4B",
"j 	c #2D094A",
"k 	c #544A6C",
"l 	c #2F204B",
"m 	c #230A42",
"n 	c #1F073D",
"o 	c #290B48",
"p 	c #1F063B",
"q 	c #23073F",
"r 	c #250741",
"s 	c #260843",
"t 	c #2D1541",
"u 	c #20083B",
"v 	c #240943",
"w 	c #2E084A",
"x 	c #260945",
"y 	c #2B093D",
"z 	c #2F094C",
"A 	c #270946",
"B 	c #220841",
"C 	c #30094E",
"D 	c #2D094B",
"E 	c #2D0A40",
"F 	c #2B0949",
"G 	c #210741",
"H 	c #493940",
"I 	c #240D41",
"J 	c #3B2B41",
"K 	c #554541",
"L 	c #524240",
"M 	c #250E41",
"N 	c #443862",
"O 	c #291647",
"P 	c #1E043E",
"Q 	c #210641",
"R 	c #514241",
"S 	c #BBA64A",
"T 	c #E9CD3D",
"U 	c #C5AD3F",
"V 	c #D9C35B",
"W 	c #F6D841",
"X 	c #F2D53C",
"Y 	c #BAA33D",
"Z 	c #574840",
"` 	c #564641",
" .	c #52423F",
"..	c #5C4C3C",
"+.	c #A9933B",
"@.	c #5D4D40",
"#.	c #250F41",
"$.	c #2C094A",
"%.	c #2F0B4E",
"&.	c #320B4E",
"*.	c #564449",
"=.	c #BEA94C",
"-.	c #EED348",
";.	c #FDE047",
">.	c #FEDF3E",
",.	c #FEDF42",
"'.	c #FADB3D",
").	c #F9DB41",
"!.	c #EFD23C",
"~.	c #EBCF3A",
"{.	c #EED13B",
"].	c #F5D73D",
"^.	c #8A773C",
"/.	c #240C41",
"(.	c #2C0A4B",
"_.	c #6952A0",
":.	c #482370",
"<.	c #4B344D",
"[.	c #E9D054",
"}.	c #FEE04B",
"|.	c #F8DA3D",
"1.	c #DAC036",
"2.	c #F8DD55",
"3.	c #FEDF3F",
"4.	c #FBDC3D",
"5.	c #E5C937",
"6.	c #ECCF39",
"7.	c #FDDE3E",
"8.	c #8F7B3E",
"9.	c #30114B",
"0.	c #401765",
"a.	c #330C51",
"b.	c #440C56",
"c.	c #452E4E",
"d.	c #AF9846",
"e.	c #FCDF45",
"f.	c #F4D63C",
"g.	c #F0D23A",
"h.	c #FCDE3E",
"i.	c #FBDD3E",
"j.	c #EDD039",
"k.	c #DBC036",
"l.	c #FBDD43",
"m.	c #FBDD3D",
"n.	c #F5D73C",
"o.	c #F4D63D",
"p.	c #4B354A",
"q.	c #2A0947",
"r.	c #593854",
"s.	c #D6C05B",
"t.	c #FCDE44",
"u.	c #F0D33A",
"v.	c #FEE04A",
"w.	c #FEE047",
"x.	c #F8DA40",
"y.	c #F9DD4C",
"z.	c #FDDE3F",
"A.	c #E7CB38",
"B.	c #E4C838",
"C.	c #F9DB3D",
"D.	c #B8A042",
"E.	c #4E384C",
"F.	c #250944",
"G.	c #D2B849",
"H.	c #FDE04C",
"I.	c #EED13A",
"J.	c #F3D63B",
"K.	c #F0D43A",
"L.	c #FEDF41",
"M.	c #FEE35E",
"N.	c #FEE046",
"O.	c #E3C737",
"P.	c #F7D93C",
"Q.	c #FADC3D",
"R.	c #B39C40",
"S.	c #220144",
"T.	c #1E0141",
"U.	c #3E2D41",
"V.	c #574740",
"W.	c #5E4D41",
"X.	c #5C4C41",
"Y.	c #432D3F",
"Z.	c #EDCE3A",
"`.	c #F6D83C",
" +	c #F3D53B",
".+	c #FCDD3E",
"++	c #F2D640",
"@+	c #F9DF58",
"#+	c #FDDF44",
"$+	c #FCDD3D",
"%+	c #F4D63B",
"&+	c #FDDE3D",
"*+	c #F8DA3C",
"=+	c #CDB33F",
"-+	c #CBB13F",
";+	c #C9B03F",
">+	c #DBC03D",
",+	c #F0D33B",
"'+	c #EACE3B",
")+	c #D5BB38",
"!+	c #9A853A",
"~+	c #DFC138",
"{+	c #FEE04C",
"]+	c #FEE256",
"^+	c #E6CA38",
"/+	c #D0B632",
"(+	c #DEC336",
"_+	c #EDD03A",
":+	c #DFC336",
"<+	c #E2C737",
"[+	c #E9CD39",
"}+	c #EACE39",
"|+	c #E0C536",
"1+	c #D3B937",
"2+	c #C1A934",
"3+	c #8A773B",
"4+	c #5D4D3D",
"5+	c #2B1841",
"6+	c #513D3C",
"7+	c #8E773A",
"8+	c #CDB434",
"9+	c #EED23A",
"0+	c #E2C638",
"a+	c #F2D43B",
"b+	c #FBE059",
"c+	c #F9DB42",
"d+	c #CCB331",
"e+	c #E8CC38",
"f+	c #E0C436",
"g+	c #CAB131",
"h+	c #C6AE30",
"i+	c #B59E2E",
"j+	c #927F33",
"k+	c #7F6D3A",
"l+	c #74633A",
"m+	c #2E1B41",
"n+	c #350E3F",
"o+	c #5B4B3D",
"p+	c #C1A930",
"q+	c #D1B732",
"r+	c #E0C538",
"s+	c #FCE04E",
"t+	c #D7BD34",
"u+	c #CEB532",
"v+	c #CBB231",
"w+	c #D1B733",
"x+	c #B49E2B",
"y+	c #A5902B",
"z+	c #493B3B",
"A+	c #230B41",
"B+	c #27143A",
"C+	c #B59F31",
"D+	c #CCB231",
"E+	c #EFD23A",
"F+	c #D5BB34",
"G+	c #C7AF30",
"H+	c #B49E2C",
"I+	c #50413B",
"J+	c #32093A",
"K+	c #220A3C",
"L+	c #5F5039",
"M+	c #BBA332",
"N+	c #E2C639",
"O+	c #CFB632",
"P+	c #D4BA33",
"Q+	c #C3AB2F",
"R+	c #C5AC2F",
"S+	c #AF992F",
"T+	c #837132",
"U+	c #291541",
"V+	c #20073E",
"W+	c #310938",
"X+	c #29113F",
"Y+	c #20093B",
"Z+	c #210C3A",
"`+	c #6B5A3A",
" @	c #D0B737",
".@	c #D4BA37",
"+@	c #D1B835",
"@@	c #F8D93C",
"#@	c #E5C938",
"$@	c #C9B031",
"%@	c #B39D2B",
"&@	c #C2AA2F",
"*@	c #8A7834",
"=@	c #2B1740",
"-@	c #1E063B",
";@	c #220D3B",
">@	c #5C4D3E",
",@	c #B9A231",
"'@	c #C8AF30",
")@	c #C7AE30",
"!@	c #B8A12E",
"~@	c #A18D2C",
"{@	c #AC972F",
"]@	c #9E8B2D",
"^@	c #6B5A3B",
"/@	c #675442",
"(@	c #6A544D",
"_@	c #301648",
":@	c #46363D",
"<@	c #6C5B39",
"[@	c #6A5A38",
"}@	c #4B3B3C",
"|@	c #230C41",
"1@	c #3C0A5B",
"2@	c #3B0A59",
"3@	c #2C093F",
"4@	c #2E094C",
"5@	c #380A57",
"6@	c #270F44",
"7@	c #360A54",
"8@	c #390A58",
"9@	c #3E0B5D",
"0@	c #330A51",
"a@	c #32224B",
"b@	c #210B3C",
"c@	c #2D0A3F",
"d@	c #240A42",
"e@	c #34184D",
"f@	c #2C0949",
"g@	c #340A52",
"h@	c #4C3D63",
"i@	c #261340",
"j@	c #210940",
"k@	c #2B073A",
"l@	c #330A3C",
"m@	c #3A0A59",
"n@	c #330950",
"o@	c #390A57",
"p@	c #3E0B5E",
"q@	c #3B0A5A",
"r@	c #280947",
"s@	c #330A3D",
"t@	c #3C095C",
"u@	c #400B60",
"v@	c #3A0A58",
"w@	c #2B083B",
"x@	c #33093B",
"y@	c #240942",
"z@	c #3F125E",
"A@	c #61497D",
"B@	c #340A53",
"C@	c #2C093E",
"D@	c #250943",
"E@	c #460E3C",
"F@	c #3C0C3E",
"G@	c #410C46",
"H@	c #440C4A",
"I@	c #400C44",
"J@	c #4B0D57",
"K@	c #4E0E5B",
"L@	c #480D52",
"M@	c #440C4B",
"N@	c #460D4E",
"O@	c #490D53",
"P@	c #460C4E",
"Q@	c #3E0C41",
"R@	c #3B0C3C",
"S@	c #3B0B3A",
"T@	c #3B0C3B",
"U@	c #3B0C3D",
"V@	c #410D3D",
"  . . + @ @ @ # $ % & * . . . . . . . = - ; > ; - - - - - - - , ",
"' ) ! ~ { ] ] ^ / / ( ) ) ) ) ) ) ) ) _ : < < < < < < < < < < [ ",
"} | 1 { 2 3 4 / 5 ) ) ) ) ) ) ) 6 : : 7 8 < < < < < < < < < < [ ",
"9 0 2 a b c ) ) ) ) ) ) ) d e f g : 6 f h : < < < < < < < < < [ ",
"i j 0 | k l ) ) ) ) ) ) ) ) m ) ) g 6 ) g g 6 < : g n g : < < [ ",
"i / 4 ) ) ) ) ) ) o ( ) ) ) ) ) ) ) g g p _ n q r s ( ) ) t u [ ",
"i ] v ) ) ) ) ) ) ) ) ) ) ) ) ) ) ) ) ) ) ) ) s ] w x ) ) ) f y ",
"i ] z A ) ) ) ) ) ) ) ) ) ) B ) ) ) ) ) ) ) ) ! ] C D ) ) ) ) E ",
"i ] ] F ) ) G H I J K L M ) N O _ P ) ) ) | ! 0 j F | | | ) ) E ",
"i ] ] 2 Q R S T U V W X Y Z `  ...+.@.#.) $.%.F a D 3 2 2 ( ) E ",
"i ] &.*.=.-.;.>.>.,.>.'.).!.~.{.'.>.].^./.(._.:.] ] z ] 2 x ) E ",
"i ] <.[.}.>.>.>.>.>.|.1.2.3.4.5.6.7.7.1.8.9.0.a.] ] ] ] a 4 ) E ",
"b.c.d.e.f.g.h.>.>.i.j.k.l.>.m.7.7.7.7.n.o.p.] ] C 0 0 j q.) ) E ",
"r.s.t.>.6.u.7.>.v.w.>.x.y.z.A.B.7.>.>.>.C.D.E.0 | 4 4 F.) ) ) E ",
"G.H.I.7.J.K.'.n.L.>.3.M.N.>.>.O.P.>.>.>.Q.7.R.q.S.T.T.U.V.W.X.Y.",
"Z.>.`.Q. +.+++@+>.>.4.#+>.>.$+A.%+7.>.&+*+$+].=+-+-+;+>+,+'+)+!+",
"~+P.7.>.7.`.{+]+>.>. +^+Q.$+J./+(+u.C._+:+<+[+}+A.|+1+2+3+4+5+6+",
"7+8+}+Q.9+0+i.a+P..+b+c+*+(+u./+d+e+f+g+h+h+i+j+k+l+m+#.) ) ) E ",
"n+o+p+q+r+s+3.'.5.m.,.3.$+t+u+v+v+w+d+v+x+y+z+A+) ) ) ) ) 6 _ E ",
"' B+C+D+!.,.>.>.7.>.4.E+C.F+v+v+v+G+g+v+H+I+) ) ) ) : 7 g < : y ",
"J+K+L+M+N+`.7.C.>.>.Q.O+P+d+v+Q+g+R+H+S+T+U+) ) ) ) g : g < V+E ",
"W+X+Y+Z+`+ @.@+@J.@@#@d+h+v+$@%@Q+&@*@=@A+) ) ) ) ) g < -@g g E ",
"W+< < < < ;@M >@,@'@)@!@~@{@]@^@/@(@_@) ) ) ) ) ) ) f g f ) ) E ",
"W+< < < V+) ) ) :@<@[@}@|@/.|@5 ] 1@2@$.5 ) ) ) ) ) ) ) ) ) ) 3@",
"W+< < V+) ) ) ) ) ) ) ) ) ) ) | 4@5@{ ] ( ) ) ) ) ) ) _ 6 6 ) E ",
"W+< 6 ) ) ) ) ) ) ) ) ) 6@4 v 2 7@8@9@0@) ) ) ) ) ) ) a@b@V+) c@",
"W+: f ) ) ) ) ) ) ) ) d@e@f@] ] 2@5@1@g@) ) ) ) ) ) g h@i@f j@k@",
"l@f g ) ) ) ) ) ) ) | $.] m@n@1 o@{ p@q@r@) v ) ) g _ f ) ) _ E ",
"s@) ) ) ) ) ) ) ) 4 $.t@u@u@1@9@{ { v@u@7@C $.) 7 _ ) ) ) ) ) w@",
"x@g ) ) ) ( ! y@4 F z@A@u@p@{ ] ] 1@9@B@7@| ) 6 -@g g 7 ) ) ) C@",
"' ) ) ) ) a ] a / p@u@u@p@8@{ ] 7@o@! F.F.D@) g f ) : f ) ) ) E ",
"E@F@F@F@F@G@H@I@H@J@K@L@M@H@H@N@O@P@Q@R@S@F@F@T@F@F@U@F@F@F@F@V@"};
