/* XPM */
static char * C:\Users\qatar\Desktop\Sans titre_xpm[] = {
"64 64 294 2",
"  	c #220941",
". 	c #31094E",
"+ 	c #400B60",
"@ 	c #3C0D45",
"# 	c #1E063A",
"$ 	c #4B2856",
"% 	c #7C3CAC",
"& 	c #AEA5CC",
"* 	c #3C105C",
"= 	c #492D4D",
"- 	c #7E74A4",
"; 	c #D3B935",
"> 	c #D4BA35",
", 	c #DCC54E",
"' 	c #E9CE3F",
") 	c #F3D53C",
"! 	c #EBCF3A",
"~ 	c #DEC337",
"{ 	c #E2CA50",
"] 	c #FCE153",
"^ 	c #FDE043",
"/ 	c #FEDF3E",
"( 	c #E7CC3A",
"_ 	c #F9E372",
": 	c #FDE56C",
"< 	c #F8DA3D",
"[ 	c #CBB334",
"} 	c #D5BB36",
"| 	c #CBB234",
"1 	c #F0D648",
"2 	c #FDE460",
"3 	c #FEDF41",
"4 	c #FDE14B",
"5 	c #FDDE3E",
"6 	c #DEC438",
"7 	c #D1B935",
"8 	c #E5C939",
"9 	c #F7DA3F",
"0 	c #E7CC39",
"a 	c #DDC237",
"b 	c #F7D93D",
"c 	c #FDDF3E",
"d 	c #682E9F",
"e 	c #ECD147",
"f 	c #FDE256",
"g 	c #FEE044",
"h 	c #F1D33B",
"i 	c #FDDF43",
"j 	c #FEDF40",
"k 	c #EFD23A",
"l 	c #DFC436",
"m 	c #CDB432",
"n 	c #979AE2",
"o 	c #C7AF33",
"p 	c #FBE262",
"q 	c #FDE465",
"r 	c #E9CD39",
"s 	c #CCB331",
"t 	c #EED449",
"u 	c #FDE464",
"v 	c #F3D53B",
"w 	c #D4BA33",
"x 	c #E7CB38",
"y 	c #EACE39",
"z 	c #FCDD3D",
"A 	c #E8CC39",
"B 	c #B19B2C",
"C 	c #F7DD58",
"D 	c #FDE35E",
"E 	c #F4D73C",
"F 	c #DABF35",
"G 	c #FDE56A",
"H 	c #FEDE3E",
"I 	c #DCC135",
"J 	c #E9CD38",
"K 	c #E5C938",
"L 	c #DEC335",
"M 	c #D6BC34",
"N 	c #D7BD36",
"O 	c #DCC237",
"P 	c #FDE35A",
"Q 	c #D2B832",
"R 	c #CBB231",
"S 	c #E2C637",
"T 	c #FDE254",
"U 	c #FADC3D",
"V 	c #F9DB3D",
"W 	c #DAC035",
"X 	c #F5D73C",
"Y 	c #F1D43B",
"Z 	c #E6CA38",
"` 	c #FBDD3D",
" .	c #F4D63B",
"..	c #F4D63C",
"+.	c #D5BB34",
"@.	c #FDDF3F",
"#.	c #E4CD54",
"$.	c #FDE14E",
"%.	c #EACD39",
"&.	c #E5C937",
"*.	c #FBDC3D",
"=.	c #FDE044",
"-.	c #EDD03A",
";.	c #CFB632",
">.	c #F7E16D",
",.	c #FDE361",
"'.	c #E3C837",
").	c #EBCF39",
"!.	c #FDE567",
"~.	c #FEE152",
"{.	c #FFDF3E",
"].	c #FDE35C",
"^.	c #FDE257",
"/.	c #EED13A",
"(.	c #E9CD3A",
"_.	c #CFB735",
":.	c #F5DD60",
"<.	c #F0D33A",
"[.	c #F6D83C",
"}.	c #DFC536",
"|.	c #FADB3C",
"1.	c #FEE042",
"2.	c #FEE049",
"3.	c #FEDF3F",
"4.	c #FDE774",
"5.	c #FEE254",
"6.	c #E2C737",
"7.	c #F8DA3C",
"8.	c #CEB634",
"9.	c #DBC138",
"0.	c #FDE14C",
"a.	c #E3C737",
"b.	c #E4C937",
"c.	c #DFC437",
"d.	c #FDDE3D",
"e.	c #FEE467",
"f.	c #FADB3D",
"g.	c #CBB331",
"h.	c #F1D43A",
"i.	c #EFD33B",
"j.	c #E8CC3A",
"k.	c #F7D93C",
"l.	c #D8BE34",
"m.	c #DBC035",
"n.	c #D2B833",
"o.	c #EFD341",
"p.	c #FCE04D",
"q.	c #CFB532",
"r.	c #EDD13A",
"s.	c #D1B936",
"t.	c #DABF36",
"u.	c #E5CA39",
"v.	c #EFD23B",
"w.	c #F3D63C",
"x.	c #CCB434",
"y.	c #FCDD3E",
"z.	c #F8DB42",
"A.	c #FDE879",
"B.	c #FCDE3E",
"C.	c #CCB332",
"D.	c #FCDE3D",
"E.	c #E4C938",
"F.	c #CBB332",
"G.	c #C4AC31",
"H.	c #D9C036",
"I.	c #E6CB3A",
"J.	c #FEE56C",
"K.	c #FEEA85",
"L.	c #F4D73B",
"M.	c #D9BF35",
"N.	c #D3B933",
"O.	c #E1C536",
"P.	c #D0B632",
"Q.	c #F2D53B",
"R.	c #F5D83C",
"S.	c #E6CA37",
"T.	c #DDC235",
"U.	c #BEA72F",
"V.	c #B29C2C",
"W.	c #978428",
"X.	c #D5BC36",
"Y.	c #E8CC38",
"Z.	c #FEE14C",
"`.	c #D0B732",
" +	c #DBC135",
".+	c #E7CA38",
"++	c #D1B733",
"@+	c #ECCF3A",
"#+	c #D8BD35",
"$+	c #E0C536",
"%+	c #DDC236",
"&+	c #D7BD34",
"*+	c #D1B732",
"=+	c #C9B131",
"-+	c #BAA32E",
";+	c #D3BA33",
">+	c #CCB231",
",+	c #F0D545",
"'+	c #EFD443",
")+	c #F2D43B",
"!+	c #EDD039",
"~+	c #CAB131",
"{+	c #C2AA2F",
"]+	c #C1A92E",
"^+	c #BFA72E",
"/+	c #B8A22D",
"(+	c #AF9A2B",
"_+	c #AD972B",
":+	c #B6A12F",
"<+	c #D5BB33",
"[+	c #EBCE39",
"}+	c #E1C637",
"|+	c #CBB232",
"1+	c #C6AE30",
"2+	c #C0A92E",
"3+	c #B9A22C",
"4+	c #B7A02C",
"5+	c #A48F28",
"6+	c #857521",
"7+	c #B9A22D",
"8+	c #C7AF30",
"9+	c #FBDD3F",
"0+	c #FDE14D",
"a+	c #CDB431",
"b+	c #FDE14F",
"c+	c #F7D83C",
"d+	c #DEC336",
"e+	c #CCB431",
"f+	c #D7BD35",
"g+	c #AC972A",
"h+	c #B6A02C",
"i+	c #AC9729",
"j+	c #7B6C21",
"k+	c #D1B833",
"l+	c #EACD38",
"m+	c #A28F27",
"n+	c #A49028",
"o+	c #958325",
"p+	c #B9A22E",
"q+	c #FEE04A",
"r+	c #FEE14E",
"s+	c #8B7A22",
"t+	c #E8CB38",
"u+	c #BFA82E",
"v+	c #A18E27",
"w+	c #E1C537",
"x+	c #F9DB3C",
"y+	c #C8AF30",
"z+	c #B39D2B",
"A+	c #C0A92F",
"B+	c #C9B031",
"C+	c #AE992A",
"D+	c #968425",
"E+	c #BFA82F",
"F+	c #B69F2C",
"G+	c #C3AB2F",
"H+	c #AB9629",
"I+	c #9F8B27",
"J+	c #917F24",
"K+	c #4A2D55",
"L+	c #DEC338",
"M+	c #D4BB34",
"N+	c #A99429",
"O+	c #B49E2C",
"P+	c #DDC338",
"Q+	c #BDA62D",
"R+	c #B59E2B",
"S+	c #A79228",
"T+	c #C8B031",
"U+	c #BEA72E",
"V+	c #A18D27",
"W+	c #BCA52E",
"X+	c #C9B030",
"Y+	c #AA9528",
"Z+	c #CAB231",
"`+	c #C2AB2F",
" @	c #B19B2B",
".@	c #A08D27",
"+@	c #8E7C24",
"@@	c #988524",
"#@	c #918024",
"$@	c #C8AF31",
"%@	c #A59128",
"&@	c #928023",
"*@	c #9C8926",
"=@	c #A28E28",
"-@	c #998726",
";@	c #8B7923",
">@	c #A79229",
",@	c #A38F27",
"'@	c #8B7922",
")@	c #563867",
"!@	c #A18BBE",
"~@	c #9D8DB8",
"                . . . . . . + + + . + . .                                   @ # # #           # # # # # # # # # # # # # # # # # ",
"              . . . . . . . . + . . . .   .                                   # # # # # #     # # # # # # # # # # # # # # # # # ",
"            . . . . . . . . + . . . . .                                       # # # # # # # # # # # # # # # # # # # # # # # # # ",
"          . . + . . . . . . .                                                     # # # # # # # # # # # # # # # # # # # # # # # ",
"        . + . . . . .     . . .                                       # #     #   # # # # # # # # # # # # # # # # # # # # # # # ",
"      . . + . . .   .                                           # # # # # #     $ # # # # # # # # # # # # # # # # # # # # # # # ",
".   . . . . .   .                                             # # # # # #   #         # # # # # # # # # # # # # # # # # # # # # ",
". . . .   .   .   . .                                   %             # #       # # # # # # # # # # # # # # # # # # # # # # # # ",
". . . . . . .     &                                                   # #       # # # # # # # # # # # # # # # # # # # # # # # # ",
". .   . . .                                                           # #                   # # #       #         # # # # # # # ",
". .     .                                                               #     # # #   # # # # # # #                 # # # # # # ",
". . .                                 *                                 #     # # #       # # . # . # .               = # # # # ",
". . . .                                                                                     #   . . . # .                 # # # ",
". . . .                                                                                       . . . . .                         ",
". . . . .                                                                                       . . . . .                       ",
". . . . . . .                                                                                 . . . . . . .                     ",
". . . . . . .                                                                               . . . . .   .                       ",
". . . . . . .                                             -       # # #               .   . . .   .   .       .   .             ",
". . . . . . .               ; >       , ' ) ! ~                   #                 . . .   .   .   . . .   . . .               ",
". . . . . . . .         { ] ^ / / ( _ : / / / / < [           # # # > }               .   .   .   .   .   .   . . .             ",
". . . . . . .       | 1 2 / / / / / 3 4 / / / / / 5 6 7 8 9 0 a b / / / c ~         .   . d . . . . . . .   . . .   .           ",
". . . . . . .   e 2 f g / / / / / / / / / / / < h i j / k l < / / / / / / / m         . d n d . . . . . . . . . . .             ",
". . . . . . o p q j / / / / / / / / / / / / r s t u / / / v w x y z / / / / A B     . . . d . . . . . . . . . . .   .           ",
". . . . . . C D / / / / / / / / / / / / / E s F G 3 / / / H I J K L / / / / x M N     . . . . . . . . . . . . .   .             ",
". . +   . O P / / / / / / / / / / / / c x Q R S T / / / / / / / / U V / / c W X / 6 . . . . . . . . . . . . . . .               ",
"+ +   . . Y j / X Z l Z ` / / / / / / Y  ...W +.@./ / / / / / / / / / / / ` z / / 5   . . . . . . . . . . .   .   .             ",
"+ +   #.$./ / / %.s &.` *./ / / / / g =./ / *.l x / / / -.;.r / / / / / / / / / / / . . . . . . .   .   .   .                   ",
". . >.,./ / / / / '.)./ / / / / j !.~./ {.{./ / ].^.j *./.W R K {./ {.{.{.{.{.{.{. .(._.. . . .                                 ",
". :.: / <.[./ / / Y }./ {./ |./ 1.2./ / / / 3.4.5./ / / / / 6.m *./ / / / / / / 7.<./ / 8.  .   .                               ",
"9.0./ / a././ / / 6.b./ /  .c.d./ / / / / / e.q / / / / {./ f.g.h./ / / / / / / / / / / i..   .                                 ",
"j./ / / k.l.*./ x m.*./ k.n.o.p./ / / / / / f / / / / / / / / q.r./ / / / / / / / / / / / s.                  t.u.v.5 / / w.x.  ",
"A / / / / y.V *.< / / / [.z.A.3./ / / / z 7./ / / / / / / / B.C.k / {./ {./ {.7. .D./ d.{./ / / / / / / / / / / / *.h.E.F.G.H.  ",
"I.z / / / / / / / / / / / J.K./ / / / / V l y.5 / / / / L.M.N.R ).5 X L./ / / ` O.P.Q.y U / / / / / / B.R./.S.T.n.U.V.      W.  ",
"X.Y Q.*./ / / / / / Y./ / Z.2.3./ / / / / y R `.f./ / / / E s R R w  +/ / X a..+[.++;.@+#+E.$+$+%+&+*+s R =+-+B                 ",
"  E.;+x [./ / / / R.>+Y / / / / / / / / / ,+'+)+< Y.m.!+/ / ;+R R R S / *.;.R R R R R `.R ~+{+]+^+/+(+_+                        ",
"  :+~+R <+k./ / V <+;.[+/ [.Z &. ./ 7.z u A./ {./ c }+g.Z 7.s R R R l k %.R |+1+2+R R 3+4+5+6+                                  ",
"      7+8+s l.F m W 9+0+3./ 5 [+a+W k./ / b+/ / / c+d+s e+f+R R R R n.'.R R R R g+h+~+i+j+                            #         ",
"        7+R R R k+y.!.3./ / / / l+J / / / / / / / / F R R R R R R R R R R R R R ]+m+n+o+                              # #       ",
"    # # p+R R R '.q+r+/ / / / / z U / / / / / / / / 6.R R R R R R R R R R R R R ~+m+s+                    #       # # # #     # ",
"    # # V.R R R t+/ / / / / / / / / / / / v -.'.B./ M R R R R R R R R u+R R R R 1+v+                    # #       # # # # # #   ",
"  # # # # 1+R R w+D.*.{./ / / / / / / / / x+m R a.$+R R R R 1+y+R R R z+A+R R B+C+D+                    # # #       # # #       ",
"# # # # # # E+R k+5 Y./ / / Q./ / / / / / < R R R R R R R R =+F+R R R G+m+H+C+I+J+                          # #   # # # #       ",
"# # # K+# # # # # L+Z T.Q.` M+h./ / / / / r R R ~+R R R R R 1+N+R R R R O+o+                              # # # # # # # #       ",
"# # # # # # # # # # P+%+>+R ~+;./.5 / < Y.m R R Q+~+R R R R R+S+y+~+T+U+V+                                # # # # #       #     ",
"# # # # # # # # # # # #       W+R a+m R R R R X+Y+Z+R ~+`+ @.@+@J+D+@@#@.                                 # #   #               ",
"# # # # # # # # # # # #          @$@R R R R ]+%@&@*@n+=@-@J+  . . . + +                                       #                 ",
"# # # # # # # # #                 ;@I+>@,@-@'@                  . . + . + +                                                   # ",
"# # # # # # # # #                                               . . + + + . . .                                                 ",
"# # # # # # #                                                   . . + . . . . .                                                 ",
"# # # # # # #                                                 . .   + . . . . .                               # # # # #         ",
"# # # # #                                                     . . . . + + . . .                               # # # #           ",
"# # # # #                                           .       . . . + . + + + +                               # # # # #           ",
"# # # # #                                       )@      . . . . + + + . + + +                             # # !@# # #       # # ",
"# # #                                             . . . . . . . + . + . . + +                           #   # # # #         # # ",
"# # #                                       .   .   . . . . . . . . . . + + . .                       #     #           # #     ",
"        # #                               .   . . . + + . . . + + + . . + + + + .                     #   #                     ",
"#                                       .   . + + + + + + . + + . . . . . + + + .       . .         #                         # ",
"                                      .   . + + + + + + + + + + . . . . . + + + + . . + .                                   # # ",
"# # #                                   . + + + + + + + . . . . . . . + + + + + + + .           # # #     #                 # # ",
"  # #                     .       .   . + + ~@+ + + + + . . . . . . + + + +   . . .         # # # # #     #                     ",
"                    .   . . .       + + + + + + + + . . . . . . . . . + .   .   .   .       # # #       #   #                   ",
"                      . . .   .   . + + + + + + + + + + . . . . . + + .                                 # #                     ",
"                    . . . . .   . . . + + + + + . . . . . . . . . + + . .                   #             #                     ",
"                      . . .   . . . + + + + . . . . . . . . . + + . . .       # # #         #                                   "};
