/* XPM */
static char * C:\Users\qatar\Desktop\KintoUn_xpm[] = {
"64 64 431 2",
"  	c #220941",
". 	c #31094E",
"+ 	c #400B60",
"@ 	c #3C0D45",
"# 	c #1E063A",
"$ 	c #4B2856",
"% 	c #37114E",
"& 	c #2A1241",
"* 	c #37124E",
"= 	c #37104E",
"- 	c #2A1041",
"; 	c #2A1141",
"> 	c #270F3A",
", 	c #270E3A",
"' 	c #2A0F41",
") 	c #270D3A",
"! 	c #27103A",
"~ 	c #7E3EAB",
"{ 	c #27113A",
"] 	c #AFA5CB",
"^ 	c #2A1341",
"/ 	c #37134E",
"( 	c #260E41",
"_ 	c #230B3A",
": 	c #41175C",
"< 	c #4D304D",
"[ 	c #2A1441",
"} 	c #27123A",
"| 	c #37144E",
"1 	c #2C1640",
"2 	c #79673B",
"3 	c #BBA43A",
"4 	c #CFB63B",
"5 	c #C5AC3D",
"6 	c #9C883C",
"7 	c #3C2A3E",
"8 	c #37174B",
"9 	c #6D5A47",
"0 	c #756247",
"a 	c #391B4A",
"b 	c #37154E",
"c 	c #3E2F3B",
"d 	c #72613E",
"e 	c #7D7291",
"f 	c #2F1840",
"g 	c #4A3B3E",
"h 	c #D0B63A",
"i 	c #FEDF3E",
"j 	c #FDE464",
"k 	c #EFDB73",
"l 	c #B7A040",
"m 	c #EDD03C",
"n 	c #FDE042",
"o 	c #F2D851",
"p 	c #B5A03F",
"q 	c #3E224B",
"r 	c #2A1541",
"s 	c #6E5D3B",
"t 	c #DBC13A",
"u 	c #FDDF3E",
"v 	c #EBCE3B",
"w 	c #B49E3A",
"x 	c #A38F3B",
"y 	c #D6BC3B",
"z 	c #CBB23B",
"A 	c #84733B",
"B 	c #8D7A3B",
"C 	c #E6CB3B",
"D 	c #FEE048",
"E 	c #FDE257",
"F 	c #FDE568",
"G 	c #DDC64D",
"H 	c #584446",
"I 	c #311B3E",
"J 	c #6B5A38",
"K 	c #ECD03A",
"L 	c #F0D33B",
"M 	c #E8CC38",
"N 	c #F9DB3D",
"O 	c #FEDF3F",
"P 	c #FBDC3D",
"Q 	c #FDDE3E",
"R 	c #FEDF42",
"S 	c #FDE255",
"T 	c #F2D954",
"U 	c #C9B13B",
"V 	c #645047",
"W 	c #42313D",
"X 	c #C4AC31",
"Y 	c #F2D53B",
"Z 	c #DCC136",
"` 	c #FDE35A",
" .	c #F0D64E",
"..	c #CFB632",
"+.	c #EACE39",
"@.	c #FDE14D",
"#.	c #FDE56A",
"$.	c #F3DA55",
"%.	c #7D6944",
"&.	c #37164E",
"*.	c #27133A",
"=.	c #54453E",
"-.	c #C0A938",
";.	c #D1B832",
">.	c #F1D53B",
",.	c #D6BC34",
"'.	c #DEC335",
").	c #F1D43C",
"!.	c #FDE56E",
"~.	c #E2C637",
"{.	c #CBB231",
"].	c #F1D33B",
"^.	c #FDE567",
"/.	c #EED450",
"(.	c #4F3949",
"_.	c #34104E",
":.	c #2A1641",
"<.	c #5C4D3D",
"[.	c #EFD23C",
"}.	c #FCDE3D",
"|.	c #F6D83C",
"1.	c #EFD23A",
"2.	c #FCDE3E",
"3.	c #EFD23B",
"4.	c #D3BA33",
"5.	c #EBCF39",
"6.	c #FDE35E",
"7.	c #B49D3A",
"8.	c #261041",
"9.	c #C4AC3A",
"0.	c #F4D73B",
"a.	c #FFDF3E",
"b.	c #FEE043",
"c.	c #E5C937",
"d.	c #E9CD39",
"e.	c #EDD03A",
"f.	c #EED13A",
"g.	c #F0D33A",
"h.	c #E9CD3C",
"i.	c #3D2D3D",
"j.	c #441760",
"k.	c #2A1741",
"l.	c #2C1741",
"m.	c #DABF35",
"n.	c #DCC235",
"o.	c #E7CB38",
"p.	c #F1D43A",
"q.	c #FEE042",
"r.	c #FDDE3F",
"s.	c #FADC3D",
"t.	c #F3D53B",
"u.	c #E1C637",
"v.	c #E2C737",
"w.	c #F5DA4D",
"x.	c #BDA846",
"y.	c #27143A",
"z.	c #47393E",
"A.	c #C6AD3A",
"B.	c #E5C938",
"C.	c #F8D93C",
"D.	c #D0B732",
"E.	c #CEB532",
"F.	c #F7D93C",
"G.	c #FDE150",
"H.	c #F8DE57",
"I.	c #FDE151",
"J.	c #FDE463",
"K.	c #DCC135",
"L.	c #EAD45E",
"M.	c #69593D",
"N.	c #301E3F",
"O.	c #DEC33B",
"P.	c #F5D73C",
"Q.	c #DFC436",
"R.	c #D1B733",
"S.	c #F8DA3C",
"T.	c #FEE252",
"U.	c #FDE774",
"V.	c #FEE14D",
"W.	c #FEE14A",
"X.	c #FBDC3C",
"Y.	c #E4C938",
"Z.	c #FEDF40",
"`.	c #FDE776",
" +	c #E9D056",
".+	c #3B2A3E",
"++	c #321F3F",
"@+	c #3D2546",
"#+	c #3B2347",
"$+	c #332140",
"%+	c #96823B",
"&+	c #FDDE3D",
"*+	c #D1B732",
"=+	c #FEE259",
"-+	c #FDE672",
";+	c #E6CB39",
">+	c #E6CA38",
",+	c #E4C837",
"'+	c #FDE252",
")+	c #A8923A",
"!+	c #39194D",
"~+	c #B09A3A",
"{+	c #EFD33B",
"]+	c #FDDF3F",
"^+	c #EDD03B",
"/+	c #D9BE39",
"(+	c #BCA438",
"_+	c #978337",
":+	c #73633C",
"<+	c #4A3C3C",
"[+	c #301E3C",
"}+	c #321F3C",
"|+	c #301F36",
"1+	c #2E1D36",
"2+	c #362836",
"3+	c #574936",
"4+	c #766638",
"5+	c #D1B839",
"6+	c #CCB331",
"7+	c #F1D43B",
"8+	c #FDE35C",
"9+	c #FBDE48",
"0+	c #EDD13E",
"a+	c #D7BD34",
"b+	c #D9BF34",
"c+	c #D5BC3B",
"d+	c #67583D",
"e+	c #DEC338",
"f+	c #B49E36",
"g+	c #D8BD35",
"h+	c #F9DA3C",
"i+	c #FADB3E",
"j+	c #FCDD3E",
"k+	c #FBDD3D",
"l+	c #FEDF3D",
"m+	c #FDE775",
"n+	c #F8DB44",
"o+	c #F4D63B",
"p+	c #F9DA3D",
"q+	c #DEC239",
"r+	c #40323E",
"s+	c #8A7834",
"t+	c #2D1B3F",
"u+	c #7A6838",
"v+	c #AA9530",
"w+	c #CCB332",
"x+	c #DBC035",
"y+	c #F5D73B",
"z+	c #ECCF39",
"A+	c #FADB3D",
"B+	c #D1B833",
"C+	c #D0B632",
"D+	c #DEC336",
"E+	c #EACE3A",
"F+	c #E5CA38",
"G+	c #FEE87C",
"H+	c #FEE671",
"I+	c #D2B93B",
"J+	c #342635",
"K+	c #2D1B38",
"L+	c #3B2B3D",
"M+	c #7E6C37",
"N+	c #A79231",
"O+	c #C4AC30",
"P+	c #D8BE34",
"Q+	c #E3C837",
"R+	c #DBC136",
"S+	c #DDC236",
"T+	c #DFC437",
"U+	c #FEE151",
"V+	c #FEE254",
"W+	c #ECCF3A",
"X+	c #FCDD3D",
"Y+	c #A6923A",
"Z+	c #301E3E",
"`+	c #675734",
" @	c #8C7A31",
".@	c #A5902E",
"+@	c #B6A02C",
"@@	c #C0A82E",
"#@	c #C2AA2F",
"$@	c #C3AB2F",
"%@	c #C6AE2F",
"&@	c #EED23E",
"*@	c #EBD043",
"=@	c #CCB231",
"-@	c #D4BA33",
";@	c #E4C939",
">@	c #43343E",
",@	c #4F325C",
"'@	c #2A1839",
")@	c #372934",
"!@	c #584A33",
"~@	c #5E502E",
"{@	c #83722A",
"]@	c #B59F2B",
"^@	c #B49E2B",
"/@	c #C8B031",
"(@	c #C8AF30",
"_@	c #C1A92F",
":@	c #EBCE39",
"<@	c #CDB432",
"[@	c #D4BB34",
"}@	c #FDE56D",
"|@	c #FDE772",
"1@	c #F8DA3D",
"2@	c #E7CB39",
"3@	c #CFB532",
"4@	c #D5BB33",
"5@	c #CAB131",
"6@	c #857339",
"7@	c #2A183A",
"8@	c #4D4032",
"9@	c #8A7928",
"0@	c #C7AE30",
"a@	c #A59128",
"b@	c #D2B933",
"c@	c #CDB431",
"d@	c #FDE14C",
"e@	c #FBDD40",
"f@	c #DAC035",
"g@	c #C8AF31",
"h@	c #B39D2F",
"i@	c #6F5E38",
"j@	c #60522F",
"k@	c #A18E27",
"l@	c #AE982A",
"m@	c #CBB331",
"n@	c #E2C736",
"o@	c #FDE566",
"p@	c #FCDE3F",
"q@	c #B39D2D",
"r@	c #2C1841",
"s@	c #443638",
"t@	c #A18E28",
"u@	c #B8A22C",
"v@	c #D4BA34",
"w@	c #B19B31",
"x@	c #2B1641",
"y@	c #904BB5",
"z@	c #907E26",
"A@	c #B39E2B",
"B@	c #EDD039",
"C@	c #968234",
"D@	c #625334",
"E@	c #A28F27",
"F@	c #C0A92E",
"G@	c #C8B030",
"H@	c #AB9629",
"I@	c #C9B131",
"J@	c #EACD39",
"K@	c #E3C737",
"L@	c #C6AD30",
"M@	c #4F4036",
"N@	c #635434",
"O@	c #907E27",
"P@	c #AA952B",
"Q@	c #AD982A",
"R@	c #A39028",
"S@	c #BDA62E",
"T@	c #B9A230",
"U@	c #695934",
"V@	c #27153A",
"W@	c #B2B2BA",
"X@	c #2E1C3F",
"Y@	c #645633",
"Z@	c #B7A12C",
"`@	c #B9A22D",
" #	c #F9DB3C",
".#	c #F1D33A",
"+#	c #C9B138",
"@#	c #594A38",
"##	c #44363B",
"$#	c #2B1640",
"%#	c #2C1840",
"&#	c #86752B",
"*#	c #B29C2B",
"=#	c #C7AF30",
"-#	c #C6AE30",
";#	c #B39D2B",
">#	c #A89328",
",#	c #BAA42D",
"'#	c #E0C436",
")#	c #D0B733",
"!#	c #C3AC3A",
"~#	c #3B2B3F",
"{#	c #4E3155",
"]#	c #2C193F",
"^#	c #6E5E32",
"/#	c #8D7B29",
"(#	c #8F7D25",
"_#	c #82722D",
":#	c #6C5E32",
"<#	c #978528",
"[#	c #A79328",
"}#	c #BBA52D",
"|#	c #AE9A2A",
"1#	c #BAA430",
"2#	c #48393A",
"3#	c #61523B",
"4#	c #7C6B3E",
"5#	c #4A3B3D",
"6#	c #3D234A",
"7#	c #705F39",
"8#	c #8D7B2F",
"9#	c #9B8926",
"0#	c #9E8B27",
"a#	c #958326",
"b#	c #84732B",
"c#	c #907F29",
"d#	c #B9A32D",
"e#	c #AA942C",
"f#	c #4A3B3B",
"g#	c #8169A6",
"h#	c #441560",
"i#	c #45195E",
"j#	c #36154B",
"k#	c #2D1941",
"l#	c #2A1540",
"m#	c #574937",
"n#	c #7D6D2E",
"o#	c #96842A",
"p#	c #9C892A",
"q#	c #8F7D2D",
"r#	c #685834",
"s#	c #2E1A3F",
"t#	c #441660",
"u#	c #593B67",
"v#	c #A28CBD",
"w#	c #230D3A",
"x#	c #9D8DB8",
"                . . . . . . + + + . + . .                                   @ # # #           # # # # # # # # # # # # # # # # # ",
"              . . . . . . . . + . . . .   .                                   # # # # # #     # # # # # # # # # # # # # # # # # ",
"            . . . . . . . . + . . . . .                                       # # # # # # # # # # # # # # # # # # # # # # # # # ",
"          . . + . . . . . . .                                                     # # # # # # # # # # # # # # # # # # # # # # # ",
"        . + . . . . .     . . .                                       # #     #   # # # # # # # # # # # # # # # # # # # # # # # ",
"      . . + . . .   .                                           # # # # # #     $ # # # # # # # # # # # # # # # # # # # # # # # ",
"% & * % = = = - = ; ; & & & & ; ; ; ; ; ; ; ; ; ; ; ; ; ; ; ; > > > > > , ' ) ' ' ' - ) , > , ) ) ) ) , ) , > > > ! > > > > > > ",
"% % % * ; = - = - % * & & ; & - - - ; ; ; ; ; ; ; ; ; ; ~ - - ; ; ; ; > > - - - ) ) ) ) , > > ) ) , , ) ) > > > > { ! > > > > > ",
"% % % % * % = - ; ] ^ & & ; ; - - - ; ; ; ; & ; & & ; - - - - - ; & ; > > ; - - , , ) , > > > > , , , , > > > > > ! { ! > > > > ",
"* * & % * * ; ; ; & & ^ ^ ; ; ; ; ; ; ; & & & & & & ; - - - ; ; ; & & > > & ; ; - ; ; & & & ! ! > & & & > & & & ; , > { ! > > > ",
"* * & & / & & & ; ( ^ & ^ ; ; ; ( ; ; ; & & & & & & ; ; ; ; ; ; ; ( ; ; , ; & ! _ ! & ! ! ! ! ! _ ! ( & & & ( & ; ; _ ! { ! ! ! ",
"* * * ^ ^ & ^ & ; & ^ & & & ; ; & & ; : & & & & & & & ; & ; ; ; ; & ; ; > ; & ! ! ! & & & ! ! * ! * ! * & & & & ; ; ; < { { ! > ",
"* * * / & ^ [ ^ & & ^ & ^ & & & & & & & ^ ^ ^ ^ ^ ^ ^ & ; ; ; ; & ^ & ; & ; & ^ ^ & ; ; ; & ! ^ / / * ! * ^ ^ & & & & & ^ } ! > ",
"* / / * ^ [ [ ^ ^ ^ ^ ^ ^ ^ ^ & & & ^ ^ ^ ^ ^ ^ ^ ^ ^ ^ & & & ^ ^ ^ ^ & & ^ ^ ^ & & & ; & & ^ / / / * * & & ^ ^ & & & ^ ^ ^ & & ",
"* / / * / ^ [ [ ^ ^ ^ ^ ^ ^ ^ ^ ^ ^ ^ ^ ^ ^ ^ ^ ^ ^ ^ ^ ^ ^ ^ ^ ^ ^ ^ ^ ^ ^ ^ ^ & & & & & & ^ ^ / / / * * ^ ^ ^ ^ ^ ^ ^ ^ ^ ^ ^ ",
"/ | / / / / | [ ^ ^ ^ ^ ^ ^ ^ ^ ^ ^ ^ ^ ^ ^ ^ ^ ^ ^ ^ ^ ^ ^ ^ ^ & & & ^ ^ ^ ^ ^ ^ & & & & & ^ / / / / / / / ^ ^ ^ ^ ^ ^ ^ ^ ^ ( ",
"| / / | / | | [ [ ^ ^ ^ ^ ^ ^ ^ [ [ [ [ [ [ [ [ [ [ [ [ [ [ ^ ^ ^ ^ ^ ^ [ [ 1 2 3 4 5 6 7 ^ 8 9 0 a | [ / ^ ^ ^ ^ [ [ [ [ ^ ^ [ ",
"b | | | | | | [ [ [ ^ ^ ^ ^ ^ ^ [ [ [ [ [ [ [ [ [ [ [ c d e f ^ ^ { { { ^ g h i i i i j k l m i n o p q ^ ^ ^ / ^ | [ [ [ [ ^ [ ",
"b | b | | | | r [ [ ^ ^ [ [ [ ^ [ [ [ [ [ [ [ [ [ s t u i i v w x y z A B C i i i i i D E i i i i i F G H I / / / ^ [ [ [ [ [ [ ",
"b | b | | | b b [ [ [ [ [ [ [ [ [ [ [ [ [ [ [ [ J K i i i i i i i L M N i O P Q i i i i i i i i i i i R S T U V / / [ [ ^ ^ ^ r ",
"b | b b | | b r [ [ [ [ [ [ [ [ [ [ [ r [ [ [ W X i i i i i N Y M Z i i i `  ...+.i i i i i i i i i i i i @.#.$.%.[ | [ [ [ [ [ ",
"b b &.b b b b r r r r [ [ r *.r r r r r r r =.-.;.i i i i >.,.'.,.).i i i i !.~.{.].i i i i i i i i i i i i i ^./.(.r [ [ [ [ r ",
"_.b &.b b b &.r r r r r r :.:.r r r r r r <.[.}.,.|.i i i 1.i i i 2.i i i i ` 3.{.4.5.i i i i i i i i i i i i i 6.7.b r [ [ r 8.",
"&.b &.b b b :.r r r r r :.:.:.r r r r r r 9.i i Q 0.i a.i i i i i i i i i i b.c...d.e.f.i i i i i i i g.M f.P i b.h.i.r r r r r ",
"&.b j.:.b &.:.r r r r :.k.k.:.r r r r r l.m.i i i i i i i i i i N n.o.i i i |.4.p.i i q.r.i i i i i s.t.u.{.v.i i i w.x.g r r r ",
"j.j.:.&.&.:.:.r r :.r :.k.:.y.y.*.r r z.A.B.i i a.i a.i i i i C.D.E.v.F.u G.H.u i i i i I.J.O i i i i i g.K.i a.i i i #.L.M.r r ",
"j.j.:.:.&.:.:.:.:.r *.r r y.y.y.*.*.N.O.i P.Y i a.i i i i i i Q.R.S.i i i i T.U.q.i i i a.V.W.i X.i a.a.Y.1.i i i F.P.Z.`. +.+:.",
"&.&.++@+#+$+:.:.:.y.r r r *.y.y.y.*.%+i i i i &+i i i i i i i *+d.i i i i i i =+-+i i i i i i i ;+S.i i >+,+i i i 1.v.i i '+)+:.",
"!+~+{+i ]+^+/+(+_+:+<+[+}+|+1+2+3+4+5+i i i i i i i i i i i Q 6+7+i i i i i i i 8+i i i i i i 9+0+R.P.i s.a+5.i }.b+P.i i i c+:.",
"d+e+f+g+1.h+i i i i i ]+i+i+j+i i i i i i i k+F.i i a.i i a.l+6+1.i a.a.i i i a.i P i i i a.i O m+n+Y i i i o+s.C.p+i i i i q+:.",
"r+s+:.t+u+v+w+x+B.f.y+2.i i i i i i i z+k+v.D.1.i i i k+7+i A+B+C+D+E+i i i i i i F+Y i i i i i G+H+i i i i i i i i i i i Q I+:.",
":.J+K+:.:.:.L+M+N+O+{.{.D.P+D+Q+c.Q+>+R+o.{.5.].>+f.i i d.S+{.{.{.v.i i i i i K.6+T+i i i i i i U+V+i i W+i i i i i i X+7+o+Y+:.",
":.y.:.:.:.k.:.r r Z+`+ @.@+@@@#@$@%@6+E.E.{.{.{.{.{.e.Q o+{.{.{.{.o+i |.u.u.N f.&@*@i i i i i i i i i |.=@y+i i i i |.E+-@;@>@r ",
",@:.:.:.:.:.:.:.r *.*.*.*.'@)@!@~@{@]@^@/@{.(@_@{.{.K.:@Y {.{.{.{.:@o+<@[@s.a.a.i }@|@i S.i 1@M 2@P.i z+3@4@A+i i N ,.{.5@6@r r ",
":.:.:.:.:.:.:.:.y.y.y.y.y.*.y.y.y.7@8@9@_@0@a@_@{.{.{.b@Q+{.{.{.{...,.{.S+5.i i i V.b.i N D+c@B.k+i O d@e@x+E.K.f@c@g@h@i@r r r ",
":.:.:.:.:.:.:.:.y.y.y.y.y.*.*.y.y.y.y.j@k@a@l@{.{.{.{.{.{.{.{.m@{.{.{.{.c@X+i i i i i i i g.n@i i i i i o@p@b@{.{.{.q@r@:.r r r ",
":.:.:.:.:.:.r *.*.*.y.y.y.*.y.y.y.y.:.[ s@t@u@{.{.{.{.{.{.{.{.{.{.{.{.{.v@i i i i i i i i i F.i i i i i V.V.B.{.{.{.w@y.:.:.r r ",
":.:.:.x@y.*.*.*.*.*.*.y.y.y.y.y@:.:.:.:.r@z@A@{.{.{.{.$@(@{.{.{.{.{.{.{.6+N i d.B@:@i i i i i i i i i i i i d.{.{.{.C@y.y.:.r r ",
":.:.y.y.y.*.*.*.*.*.*.y.y.:.y.y.:.:.:.:.:.D@E@F@{.{.G@H@I@{.{.{.$@{.{.{.{.,.J@{.<@g.i i i i i i i i i a.j+k+K@{.{.L@M@y.y.:.:.y.",
":.:.y.y.y.*.*.*.*.*.*.y.:.:.:.:.:.:.r :.:.x@N@O@P@Q@R@]@{.{.{.$@S@{.{.{.{.{.{.{.{.f.i i i i i i g.i i i o.Q b@{.T@U@y.y.y.y.y.:.",
":.y.V@y.y.y.*.*.*.y.V@V@:.:.W@:.r r r r r :.:.r@X@Y@E@5@{.{.{.Z@`@{.{.{.{.{.I@{.{.D+i i i i i y+E. #.#n.Y.+#@###$#r y.y.y.r r r ",
"y.y.V@y.y.y.y.*.V@V@V@V@V@y.y.r r :.r r r :.:.:.:.%#&#*#$@=#-#;#>#G@{.{.{.{.,#{.{.{.'#o+j+X+f.)#/@{.6+Z !#~#*.*.r y.y.y.*.r r r ",
"y.y.y.{#V@V@y.y.y.V@y.V@V@V@y.y.y.y.:.r :.:.:.:.:.:.]#^#/#(#_#:#<#[#}#L@{.{.|#$@{.{.{.{.m@6+{.1#2#3#4#5#l.y.y.y.y.y.y.y.*.r r r ",
"y.y.y.y.V@y.y.V@V@y.y.V@V@V@y.y.:.r r r :.:.:.:.:.:.:.:.r r k.&.6#7#8#9#0#a#b#c#d#/@m@{.{.=#e#f#r r :.:.:.y.y.y.y.y.r :.r *.r :.",
"y.y.y.y.V@y.y.y.V@y.y.y.:.:.:.:.r :.:.:.:.:.:.:.:.r r r r :.:.g#b b h#i#j#k#r l#m#n#o#p#q#r#s#r r r :.:.:.y.y.r *.r r r r :.:.:.",
"y.y.y.y.y.y.*.y.V@y.y.y.:.:.:.:.:.:.:.:.:.:.:.:.r r r r r r :.&.&.b t#t#r r r r r r r r r r r r r :.:.:.:.:.r *.r r r r r :.:.:.",
"y.y.y.*.y.y.y.y.y.:.:.:.:.:.:.:.:.:.:.:.:.:.:.:.r r r r r r :.:.&.b t#b t#t#r :.:.:.:.:.:.r r r :.:.:.:.:.:.r r r r r r r r :.y.",
"y.y.y.*.*.y.y.y.*.:.:.:.:.:.:.:.:.:.:.:.:.:.:.:.r r r :.r r :.:.&.b t#t#h#| | &.:.:.:.:.:.:.:.:.:.:.:.:.:.:.r r r r r r r r :.:.",
"y.y.y.y.*.*.*.r r r :.:.:.:.:.:.:.:.:.:.:.:.:.:.:.:.:.:.r r :.:.&.b t#| | | | b :.:.r r r :.:.:.r r r r :.:.r r r r r r r r :.:.",
"y.y.y.y.y.*.*.:.:.:.:.:.:.:.:.:.:.:.:.:.:.:.:.:.:.:.:.:.r :.:.&.&.:.h#| | | b b r r r r r :.:.r r r r r r :.r *.*.*.*.*.r r :.:.",
"y.y.y.*.*.:.r :.r :.:.:.:.:.r r r r :.:.:.:.:.:.:.:.:.k.k.:.:.&.&.b b t#t#b b b r r r r r r r r r r r r r :.:.*.*.*.*.r r :.:.:.",
"y.y.y.y.*.r r r :.:.:.:.:.r r r r r r :.:.:.:.:.:.:.&.:.:.:.&.&.&.j.b t#t#t#t#r r r r r r :.r r r r r r r :.y.y.y.*.*.:.:.:.:.:.",
"y.y.y.y.y.r r :.:.:.:.:.:.r r r r r r :.:.:.:.:.u#:.:.:.&.&.&.&.j.j.t#b t#h#h#[ r r :.:.:.:.:.r r r r r r y.y.v#y.y.y.:.:.:.y.y.",
"y.y.*.r :.:.:.:.:.:.:.:.:.r r r r r r :.:.:.:.:.:.&.&.&.&.&.&.&.j.&.j.b | h#t#[ r r r :.:.:.:.r r r r r y.:.y.y.y.y.:.:.:.:.y.y.",
"*.*.*.r r :.:.r r r :.:.:.:.r r r r r :.:.:.&.:.&.:.&.&.&.&.&.&.&.&.&.b t#t#b b r r r :.:.:.:.:.:.r r y.:.:.y.:.:.:.:.:.y.y.:.:.",
"r r r r *.*.:.r r r r :.:.:.r r r r :.:.:.&.:.&.&.&.j.j.&.&.&.j.j.j.b b t#t#t#t#b r r :.:.:.:.:.:.:.:.y.r y.:.:.:.:.:.:.:.r r r ",
"*.r r r r r r r r r r :.:.:.:.r :.:.:.:.&.:.&.j.j.j.j.j.j.&.j.j.&.&.b b b t#t#t#b r r r b b r r r r y.r r r r r :.r r :.r r r w#",
"                                      .   . + + + + + + + + + + . . . . . + + + + . . + .                                   # # ",
"# # #                                   . + + + + + + + . . . . . . . + + + + + + + .           # # #     #                 # # ",
"  # #                     .       .   . + + x#+ + + + + . . . . . . + + + +   . . .         # # # # #     #                     ",
"                    .   . . .       + + + + + + + + . . . . . . . . . + .   .   .   .       # # #       #   #                   ",
"                      . . .   .   . + + + + + + + + + + . . . . . + + .                                 # #                     ",
"                    . . . . .   . . . + + + + + . . . . . . . . . + + . .                   #             #                     ",
"                      . . .   . . . + + + + . . . . . . . . . + + . . .       # # #         #                                   "};
