/* XPM */
static char *_fb4dc532fc44f5ff81ce827e454f48ctuG6GKgPioxFaFwU[] = {
/* columns rows colors chars-per-pixel */
"16 16 2 1 ",
"  c #5A4119",
". c #5B5B5B",
/* pixels */
"                ",
" .............. ",
" .............. ",
" .............. ",
" .............. ",
" .............. ",
" .............. ",
" .............. ",
" .............. ",
" .............. ",
" .............. ",
" .............. ",
" .............. ",
" .............. ",
" .............. ",
"                "
};
