/* XPM */
static char *_6668f38647444b0aa4d2af9bd3feff82j2YqoO6t3zJ8moa[] = {
/* columns rows colors chars-per-pixel */
"16 16 2 1 ",
"  c #2A3405",
". c #258E2A",
/* pixels */
"                ",
" .............. ",
" .............. ",
" .............. ",
" .............. ",
" .............. ",
" .............. ",
" .............. ",
" .............. ",
" .............. ",
" .............. ",
" .............. ",
" .............. ",
" .............. ",
" .............. ",
"                "
};
