/* XPM */
static char * C:\Users\qatar\Desktop\Sans titre_xpm[] = {
"32 32 1013 2",
"  	c #271F3D",
". 	c #2C2539",
"+ 	c #2F282A",
"@ 	c #736D6C",
"# 	c #726C6B",
"$ 	c #5B5656",
"% 	c #4F504B",
"& 	c #55564C",
"* 	c #595B4C",
"= 	c #62634B",
"- 	c #5A5C3A",
"; 	c #9A975F",
"> 	c #8F964F",
", 	c #A5B651",
"' 	c #B4CD3F",
") 	c #E7B651",
"! 	c #F863C2",
"~ 	c #F65278",
"{ 	c #DA40C8",
"] 	c #872FBC",
"^ 	c #74239C",
"/ 	c #69288F",
"( 	c #67287E",
"_ 	c #511964",
": 	c #4B184F",
"< 	c #83568A",
"[ 	c #70487F",
"} 	c #5F3A6F",
"| 	c #4D2B5E",
"1 	c #492A5C",
"2 	c #482C5D",
"3 	c #472E5A",
"4 	c #28223A",
"5 	c #262430",
"6 	c #4C4B4B",
"7 	c #555358",
"8 	c #4F4F53",
"9 	c #403F43",
"0 	c #454043",
"a 	c #4D4845",
"b 	c #524943",
"c 	c #515140",
"d 	c #56583C",
"e 	c #666B35",
"f 	c #778645",
"g 	c #728F41",
"h 	c #A18D3C",
"i 	c #C85A70",
"j 	c #D833A7",
"k 	c #BF2E7D",
"l 	c #A92576",
"m 	c #8E2B81",
"n 	c #612186",
"o 	c #522185",
"p 	c #50247C",
"q 	c #4A2068",
"r 	c #5E3871",
"s 	c #6A4180",
"t 	c #5B346E",
"u 	c #401D56",
"v 	c #401F55",
"w 	c #37194D",
"x 	c #381D4F",
"y 	c #31184A",
"z 	c #29263B",
"A 	c #38343C",
"B 	c #58515B",
"C 	c #463D4B",
"D 	c #3D3440",
"E 	c #3B333E",
"F 	c #3D363C",
"G 	c #3D3B3B",
"H 	c #3D3F37",
"I 	c #424A3B",
"J 	c #49503A",
"K 	c #4D5B36",
"L 	c #4C6B31",
"M 	c #817E47",
"N 	c #99654B",
"O 	c #A3345B",
"P 	c #9D2582",
"Q 	c #95235A",
"R 	c #8E2561",
"S 	c #7D266B",
"T 	c #6F2457",
"U 	c #541D6F",
"V 	c #431B6B",
"W 	c #462563",
"X 	c #5C3D7D",
"Y 	c #4A2F71",
"Z 	c #371C5D",
"` 	c #331554",
" .	c #34144F",
"..	c #31134C",
"+.	c #31174C",
"@.	c #2B1246",
"#.	c #2E2434",
"$.	c #524954",
"%.	c #4D4753",
"&.	c #443B4A",
"*.	c #342E3B",
"=.	c #323039",
"-.	c #36363B",
";.	c #373C3B",
">.	c #393C39",
",.	c #434339",
"'.	c #3C493A",
").	c #3B573D",
"!.	c #586034",
"~.	c #6C5037",
"{.	c #7C354A",
"].	c #7D2152",
"^.	c #802069",
"/.	c #822468",
"(.	c #7B2949",
"_.	c #702559",
":.	c #642254",
"<.	c #5A2146",
"[.	c #4B1A4E",
"}.	c #5B3772",
"|.	c #4F3375",
"1.	c #3F2364",
"2.	c #32195A",
"3.	c #291352",
"4.	c #26144F",
"5.	c #2A154E",
"6.	c #2B154C",
"7.	c #2B1248",
"8.	c #423940",
"9.	c #554F5B",
"0.	c #433E4C",
"a.	c #2E2C3B",
"b.	c #2D2C38",
"c.	c #2E2F38",
"d.	c #2E3037",
"e.	c #37373B",
"f.	c #3A3A3B",
"g.	c #343E38",
"h.	c #2D4A3F",
"i.	c #3F453B",
"j.	c #584B39",
"k.	c #5E3B2F",
"l.	c #642840",
"m.	c #661A4C",
"n.	c #661860",
"o.	c #661A5C",
"p.	c #661F4F",
"q.	c #5C1F3A",
"r.	c #561C4F",
"s.	c #521E45",
"t.	c #4F1E2D",
"u.	c #6C3F6A",
"v.	c #4E2C68",
"w.	c #2D1657",
"x.	c #2A1152",
"y.	c #2B1350",
"z.	c #2C1752",
"A.	c #271750",
"B.	c #22134B",
"C.	c #221249",
"D.	c #5F5B63",
"E.	c #484654",
"F.	c #343343",
"G.	c #2A2B3B",
"H.	c #2C2D3B",
"I.	c #2F2E3A",
"J.	c #35303A",
"K.	c #303138",
"L.	c #293538",
"M.	c #283E3C",
"N.	c #3B3E3D",
"O.	c #423637",
"P.	c #4B3838",
"Q.	c #53292F",
"R.	c #5B1C37",
"S.	c #591643",
"T.	c #5A1747",
"U.	c #5B1946",
"V.	c #54172E",
"W.	c #521C22",
"X.	c #4F1C36",
"Y.	c #481839",
"Z.	c #744A65",
"`.	c #633A52",
" +	c #46204B",
".+	c #32124C",
"++	c #29124F",
"@+	c #24114D",
"#+	c #28134E",
"$+	c #29154D",
"%+	c #25134A",
"&+	c #221248",
"*+	c #4A474D",
"=+	c #433F50",
"-+	c #2E2D40",
";+	c #2A293B",
">+	c #2E293A",
",+	c #322C3A",
"'+	c #2D2F3A",
")+	c #242F38",
"!+	c #1F3339",
"~+	c #34363C",
"{+	c #403A3E",
"]+	c #44373D",
"^+	c #412331",
"/+	c #481F2D",
"(+	c #834C70",
"_+	c #7E4488",
":+	c #6C326F",
"<+	c #662D70",
"[+	c #68326F",
"}+	c #5F3050",
"|+	c #552946",
"1+	c #451B3F",
"2+	c #5E375B",
"3+	c #522D4B",
"4+	c #3F1D3A",
"5+	c #37163E",
"6+	c #301144",
"7+	c #29124A",
"8+	c #22124B",
"9+	c #221146",
"0+	c #221045",
"a+	c #2D2A39",
"b+	c #32303F",
"c+	c #312C40",
"d+	c #2F283C",
"e+	c #2D2739",
"f+	c #272A3A",
"g+	c #242E3B",
"h+	c #20303B",
"i+	c #2A303C",
"j+	c #362C3A",
"k+	c #372B37",
"l+	c #382334",
"m+	c #3D2130",
"n+	c #613452",
"o+	c #6C3A6A",
"p+	c #5C2A67",
"q+	c #4C185A",
"r+	c #4D1B5E",
"s+	c #491B51",
"t+	c #491F48",
"u+	c #47223D",
"v+	c #3B163B",
"w+	c #3B1735",
"x+	c #46234E",
"y+	c #3D1C3F",
"z+	c #371833",
"A+	c #2F1237",
"B+	c #2E1341",
"C+	c #2A1347",
"D+	c #221147",
"E+	c #1D1045",
"F+	c #1F0F44",
"G+	c #231E31",
"H+	c #312937",
"I+	c #362C42",
"J+	c #2D283D",
"K+	c #23263A",
"L+	c #20283A",
"M+	c #1F2B3A",
"N+	c #272E3C",
"O+	c #322C3D",
"P+	c #362B3C",
"Q+	c #36273A",
"R+	c #341B33",
"S+	c #3D2029",
"T+	c #683C64",
"U+	c #582961",
"V+	c #43155A",
"W+	c #3B0D4F",
"X+	c #3A0E53",
"Y+	c #3F1851",
"Z+	c #3E1849",
"`+	c #371635",
" @	c #361736",
".@	c #351333",
"+@	c #3C1C43",
"@@	c #3B1C47",
"#@	c #37193A",
"$@	c #311531",
"%@	c #2D1438",
"&@	c #2B123D",
"*@	c #281141",
"=@	c #221043",
"-@	c #1E1043",
";@	c #271E34",
">@	c #28202C",
",@	c #332E40",
"'@	c #282A3F",
")@	c #1F263A",
"!@	c #1B2639",
"~@	c #242A3C",
"{@	c #302C3D",
"]@	c #33293C",
"^@	c #342A3C",
"/@	c #321D36",
"(@	c #30192A",
"_@	c #563452",
":@	c #5D3561",
"<@	c #431A54",
"[@	c #380F53",
"}@	c #360D4C",
"|@	c #3B145B",
"1@	c #381448",
"2@	c #371648",
"3@	c #35173B",
"4@	c #331634",
"5@	c #331438",
"6@	c #341731",
"7@	c #381B41",
"8@	c #34183F",
"9@	c #311737",
"0@	c #2D1632",
"a@	c #291233",
"b@	c #281038",
"c@	c #28113E",
"d@	c #251041",
"e@	c #251E35",
"f@	c #211E2E",
"g@	c #202329",
"h@	c #21253A",
"i@	c #1C2438",
"j@	c #1F2539",
"k@	c #2B283B",
"l@	c #2E2237",
"m@	c #30263A",
"n@	c #2E1C34",
"o@	c #2E182F",
"p@	c #31151F",
"q@	c #5A3661",
"r@	c #4D2758",
"s@	c #3D1653",
"t@	c #320C51",
"u@	c #340E4E",
"v@	c #340F53",
"w@	c #351446",
"x@	c #341646",
"y@	c #30143C",
"z@	c #2F1434",
"A@	c #2F1535",
"B@	c #2E1432",
"C@	c #301531",
"D@	c #2D133E",
"E@	c #2C1539",
"F@	c #2B1532",
"G@	c #29142D",
"H@	c #2A1433",
"I@	c #281236",
"J@	c #241038",
"K@	c #201D36",
"L@	c #1B1D32",
"M@	c #1C1F24",
"N@	c #1C212D",
"O@	c #1E2333",
"P@	c #292335",
"Q@	c #2E2235",
"R@	c #2E2230",
"S@	c #2D1F33",
"T@	c #2C172D",
"U@	c #2D1725",
"V@	c #4D334B",
"W@	c #53325F",
"X@	c #3E1B51",
"Y@	c #33104E",
"Z@	c #300D53",
"`@	c #300D4D",
" #	c #300F54",
".#	c #301344",
"+#	c #301544",
"@#	c #2E1442",
"##	c #2F1637",
"$#	c #2D1635",
"%#	c #2B1333",
"&#	c #2C1328",
"*#	c #2C1433",
"=#	c #2B1539",
"-#	c #281330",
";#	c #281229",
">#	c #291328",
",#	c #26122C",
"'#	c #241130",
")#	c #1B1D37",
"!#	c #1C1E32",
"~#	c #1A1F26",
"{#	c #47474A",
"]#	c #584E5C",
"^#	c #534457",
"/#	c #493F4E",
"(#	c #4B3D4F",
"_#	c #412E42",
":#	c #432D4A",
"<#	c #331B2A",
"[#	c #583B5D",
"}#	c #462757",
"|#	c #37164E",
"1#	c #2F0D4F",
"2#	c #2F0E53",
"3#	c #2D0C4D",
"4#	c #2E0F54",
"5#	c #2D1343",
"6#	c #2D1542",
"7#	c #2C1544",
"8#	c #2C1538",
"9#	c #2B1534",
"0#	c #2B1530",
"a#	c #2B1427",
"b#	c #55444F",
"c#	c #544250",
"d#	c #3D2A39",
"e#	c #3B2633",
"f#	c #311B20",
"g#	c #2E1B1E",
"h#	c #27151C",
"i#	c #1B1D38",
"j#	c #1B1E31",
"k#	c #191E22",
"l#	c #5C5563",
"m#	c #55465C",
"n#	c #43354E",
"o#	c #3C304A",
"p#	c #3E2E4C",
"q#	c #3F284C",
"r#	c #392548",
"s#	c #2F163A",
"t#	c #3B1F41",
"u#	c #3E2054",
"v#	c #31124D",
"w#	c #2B0C4E",
"x#	c #2B0C50",
"y#	c #2A0C4D",
"z#	c #2A0F53",
"A#	c #2D1642",
"B#	c #2B1641",
"C#	c #2A1546",
"D#	c #2A143B",
"E#	c #281332",
"F#	c #29152C",
"G#	c #29131B",
"H#	c #5F4C55",
"I#	c #534050",
"J#	c #3E293F",
"K#	c #3B2639",
"L#	c #3A2635",
"M#	c #392731",
"N#	c #3B2931",
"O#	c #1A1D38",
"P#	c #1D1E2E",
"Q#	c #585261",
"R#	c #4A3E54",
"S#	c #382A44",
"T#	c #2E203D",
"U#	c #2F203F",
"V#	c #2C193E",
"W#	c #2E173E",
"X#	c #2B153D",
"Y#	c #290E3C",
"Z#	c #290C33",
"`#	c #2F1241",
" $	c #341551",
".$	c #2D1051",
"+$	c #280B4E",
"@$	c #270C4C",
"#$	c #270D52",
"$$	c #281441",
"%$	c #26143D",
"&$	c #291643",
"*$	c #28153E",
"=$	c #291633",
"-$	c #281524",
";$	c #534244",
">$	c #48363F",
",$	c #352330",
"'$	c #2D182C",
")$	c #2C182E",
"!$	c #2A182B",
"~$	c #291726",
"{$	c #291721",
"]$	c #1B1D36",
"^$	c #36303F",
"/$	c #554A60",
"($	c #3F2F4A",
"_$	c #2D203B",
":$	c #281A38",
"<$	c #2C193D",
"[$	c #29143C",
"}$	c #2A143D",
"|$	c #2A113D",
"1$	c #280B3D",
"2$	c #260938",
"3$	c #270B32",
"4$	c #321650",
"5$	c #2E1253",
"6$	c #260B4E",
"7$	c #260B4C",
"8$	c #281053",
"9$	c #281542",
"0$	c #25153C",
"a$	c #281540",
"b$	c #27153E",
"c$	c #26132C",
"d$	c #362727",
"e$	c #594949",
"f$	c #3B2A31",
"g$	c #2B1824",
"h$	c #281424",
"i$	c #25142A",
"j$	c #231227",
"k$	c #210F22",
"l$	c #211020",
"m$	c #1D1C31",
"n$	c #4F425D",
"o$	c #473A56",
"p$	c #362945",
"q$	c #271937",
"r$	c #281637",
"s$	c #2B153C",
"t$	c #2B133D",
"u$	c #28133D",
"v$	c #2A0D3D",
"w$	c #290B3F",
"x$	c #260A3E",
"y$	c #230833",
"z$	c #2C1145",
"A$	c #2A1053",
"B$	c #230A4B",
"C$	c #230B4A",
"D$	c #291552",
"E$	c #26173F",
"F$	c #241639",
"G$	c #26163B",
"H$	c #27163B",
"I$	c #261422",
"J$	c #504141",
"K$	c #473A3B",
"L$	c #312126",
"M$	c #27141D",
"N$	c #261522",
"O$	c #241424",
"P$	c #221026",
"Q$	c #221025",
"R$	c #211022",
"S$	c #372D3F",
"T$	c #534562",
"U$	c #3A2E4D",
"V$	c #2A1C3C",
"W$	c #281839",
"X$	c #291539",
"Y$	c #291139",
"Z$	c #280B40",
"`$	c #260A41",
" %	c #24093E",
".%	c #250B35",
"+%	c #260C4E",
"@%	c #210948",
"#%	c #210B47",
"$%	c #27144B",
"%%	c #25183B",
"&%	c #221434",
"*%	c #251635",
"=%	c #251630",
"-%	c #27161A",
";%	c #524446",
">%	c #392B2D",
",%	c #2B1B1E",
"'%	c #26141B",
")%	c #24141F",
"!%	c #221220",
"~%	c #211223",
"{%	c #211226",
"]%	c #1F1124",
"^%	c #594A61",
"/%	c #453957",
"(%	c #302446",
"_%	c #26173C",
":%	c #28153B",
"<%	c #291239",
"[%	c #270F38",
"}%	c #2A123C",
"|%	c #2A0E3E",
"1%	c #280A3F",
"2%	c #250940",
"3%	c #21073E",
"4%	c #210934",
"5%	c #240B38",
"6%	c #1F0733",
"7%	c #200A34",
"8%	c #241333",
"9%	c #221728",
"0%	c #221622",
"a%	c #261821",
"b%	c #211318",
"c%	c #62535B",
"d%	c #4B3D41",
"e%	c #2F2125",
"f%	c #27171B",
"g%	c #25161C",
"h%	c #22131B",
"i%	c #22121D",
"j%	c #221321",
"k%	c #201124",
"l%	c #1E1226",
"m%	c #483A51",
"n%	c #3F3252",
"o%	c #2A1C41",
"p%	c #25163D",
"q%	c #28143E",
"r%	c #28113B",
"s%	c #281039",
"t%	c #280F39",
"u%	c #2A0C3E",
"v%	c #290A42",
"w%	c #260A43",
"x%	c #240A41",
"y%	c #1D042F",
"z%	c #654E82",
"A%	c #554074",
"B%	c #443067",
"C%	c #3F315C",
"D%	c #3D3452",
"E%	c #3D334D",
"F%	c #3E324E",
"G%	c #2D2034",
"H%	c #453A41",
"I%	c #42353A",
"J%	c #2D1E22",
"K%	c #26181C",
"L%	c #24171A",
"M%	c #211218",
"N%	c #21131C",
"O%	c #20121F",
"P%	c #1F1321",
"Q%	c #1E1225",
"R%	c #261932",
"S%	c #352645",
"T%	c #2A1B41",
"U%	c #281640",
"V%	c #27123F",
"W%	c #28103E",
"X%	c #29123B",
"Y%	c #290C39",
"Z%	c #2A0A3D",
"`%	c #2A0B43",
" &	c #280A41",
".&	c #26093F",
"+&	c #250B3C",
"@&	c #3D2A56",
"#&	c #4C3670",
"$&	c #39245D",
"%&	c #2B1853",
"&&	c #2A1F49",
"*&	c #282243",
"=&	c #2B223E",
"-&	c #291F3C",
";&	c #271B38",
">&	c #2D232F",
",&	c #34272D",
"'&	c #2E1F23",
")&	c #261A1E",
"!&	c #221518",
"~&	c #211418",
"{&	c #20131A",
"]&	c #20141E",
"^&	c #1E131F",
"/&	c #1C1121",
"(&	c #221532",
"_&	c #2B1C34",
":&	c #301E43",
"<&	c #2B1742",
"[&	c #25103F",
"}&	c #26113E",
"|&	c #29113F",
"1&	c #2A0C3B",
"2&	c #29083B",
"3&	c #2C0B42",
"4&	c #290A43",
"5&	c #29093F",
"6&	c #240930",
"7&	c #523C70",
"8&	c #3C2668",
"9&	c #261250",
"0&	c #1E0C4B",
"a&	c #211840",
"b&	c #1F1A3C",
"c&	c #221B37",
"d&	c #231935",
"e&	c #281E3C",
"f&	c #251B32",
"g&	c #2F2127",
"h&	c #2F2327",
"i&	c #281B1F",
"j&	c #231618",
"k&	c #211619",
"l&	c #1F141A",
"m&	c #1E131B",
"n&	c #1E131E",
"o&	c #1F1521",
"p&	c #221335",
"q&	c #24142B",
"r&	c #301D3B",
"s&	c #2C1741",
"t&	c #260F3E",
"u&	c #26103F",
"v&	c #280F41",
"w&	c #2A0B3E",
"x&	c #2B0A3D",
"y&	c #2B093D",
"z&	c #2B0A41",
"A&	c #2B0C3A",
"B&	c #462D5A",
"C&	c #49326B",
"D&	c #321D5F",
"E&	c #210D4E",
"F&	c #1E0C4C",
"G&	c #201A3E",
"H&	c #201D3C",
"I&	c #221C37",
"J&	c #231A34",
"K&	c #271F3B",
"L&	c #261B37",
"M&	c #2B1E2A",
"N&	c #2E2325",
"O&	c #2A1D1F",
"P&	c #23171A",
"Q&	c #1F1719",
"R&	c #1E1518",
"S&	c #1D1319",
"T&	c #20151E",
"U&	c #1F141F",
"V&	c #221338",
"W&	c #231131",
"X&	c #261229",
"Y&	c #261037",
"Z&	c #27103A",
"`&	c #260E3C",
" *	c #270C3E",
".*	c #2A0C40",
"+*	c #2D0C3E",
"@*	c #2B0938",
"#*	c #2F0C3C",
"$*	c #2A092C",
"%*	c #50346A",
"&*	c #3C2462",
"**	c #261057",
"=*	c #1E0B4D",
"-*	c #1D0D4E",
";*	c #1F1C3B",
">*	c #221F3D",
",*	c #211C37",
"'*	c #261F37",
")*	c #27203A",
"!*	c #2A1D39",
"~*	c #261C33",
"{*	c #25191B",
"]*	c #24191A",
"^*	c #211819",
"/*	c #1E1617",
"(*	c #1E1618",
"_*	c #1F1619",
":*	c #1E1419",
"<*	c #1E111A",
"[*	c #22123B",
"}*	c #251238",
"|*	c #230D24",
"1*	c #240C29",
"2*	c #270F30",
"3*	c #290F35",
"4*	c #280937",
"5*	c #290A3B",
"6*	c #2D0B3B",
"7*	c #2E0B34",
"8*	c #2D082C",
"9*	c #543464",
"0*	c #52336E",
"a*	c #341B5C",
"b*	c #200B52",
"c*	c #1F0B4F",
"d*	c #1D0E50",
"e*	c #1D1E38",
"f*	c #21203B",
"g*	c #231E35",
"h*	c #272339",
"i*	c #281F37",
"j*	c #281F39",
"k*	c #261B36",
"l*	c #231924",
"m*	c #211915",
"n*	c #1F1817",
"o*	c #211916",
"p*	c #1F1515",
"q*	c #1D1214",
"r*	c #1D1215",
"s*	c #21103C",
"t*	c #240F39",
"u*	c #250D2A",
"v*	c #534054",
"w*	c #564159",
"x*	c #492B50",
"y*	c #4A2C56",
"z*	c #49295A",
"A*	c #47295B",
"B*	c #452356",
"C*	c #310C2D",
"D*	c #613C70",
"E*	c #4C2B68",
"F*	c #2D1158",
"G*	c #1D0851",
"H*	c #1F0D51",
"I*	c #1D1150",
"J*	c #1C2135",
"K*	c #212139",
"L*	c #2A253A",
"M*	c #2B2137",
"N*	c #271F37",
"O*	c #251B33",
"P*	c #231B2A",
"Q*	c #49454A",
"R*	c #524C54",
"S*	c #423A49",
"T*	c #3F3645",
"U*	c #3E3546",
"V*	c #3B3245",
"W*	c #3A3043",
"X*	c #220F3E",
"Y*	c #210C36",
"Z*	c #230923",
"`*	c #5E466B",
" =	c #543C60",
".=	c #3D204B",
"+=	c #3A1B49",
"@=	c #3F1D52",
"#=	c #3C1956",
"$=	c #3D1A5A",
"%=	c #3B154F",
"&=	c #401A49",
"*=	c #492465",
"==	c #32125B",
"-=	c #1F0854",
";=	c #200E55",
">=	c #1E1550",
",=	c #1E2535",
"'=	c #232438",
")=	c #2A2A3D",
"!=	c #2D2537",
"~=	c #292336",
"{=	c #281F34",
"]=	c #241E22",
"^=	c #565161",
"/=	c #514958",
"(=	c #382E44",
"_=	c #31283F",
":=	c #322941",
"<=	c #342943",
"[=	c #322642",
"}=	c #1F0D3C",
"|=	c #200B32",
"1=	c #503C62",
"2=	c #48325D",
"3=	c #371E4D",
"4=	c #2D0F43",
"5=	c #2E0D41",
"6=	c #2E0C3F",
"7=	c #33104A",
"8=	c #320D50",
"9=	c #330E54",
"0=	c #390F47",
"a=	c #431857",
"b=	c #3A1662",
"c=	c #250D5A",
"d=	c #210F59",
"e=	c #1F1A4F",
"f=	c #212A34",
"g=	c #282938",
"h=	c #2D2E3D",
"i=	c #2D2837",
"j=	c #282131",
"k=	c #262232",
"l=	c #23202A",
"m=	c #453F4A",
"n=	c #4D4559",
"o=	c #30293E",
"p=	c #261D37",
"q=	c #281D38",
"r=	c #281D37",
"s=	c #281C38",
"t=	c #251837",
"u=	c #1C0C3A",
"v=	c #312142",
"w=	c #52406C",
"x=	c #362254",
"y=	c #290D47",
"z=	c #270842",
"A=	c #2C0A46",
"B=	c #2E0A41",
"C=	c #2F093F",
"D=	c #340D48",
"E=	c #330A52",
"F=	c #3A0F58",
"G=	c #401149",
"H=	c #471B6A",
"I=	c #321264",
"J=	c #21105F",
"K=	c #21234E",
"L=	c #233135",
"M=	c #30353F",
"N=	c #34313C",
"O=	c #2D2834",
"P=	c #292833",
"Q=	c #292422",
"R=	c #57505F",
"S=	c #3A334B",
"T=	c #2D243B",
"U=	c #281C36",
"V=	c #261A36",
"W=	c #251934",
"X=	c #241734",
"Y=	c #221534",
"Z=	c #1E0C32",
"`=	c #45355D",
" -	c #413160",
".-	c #2B184E",
"+-	c #220A47",
"@-	c #240947",
"#-	c #280849",
"$-	c #2B0846",
"%-	c #320B48",
"&-	c #330A41",
"*-	c #390C4B",
"=-	c #3B0E5B",
"--	c #441258",
";-	c #4D1761",
">-	c #3B136A",
",-	c #211065",
"'-	c #232F4E",
")-	c #2C3932",
"!-	c #3A4041",
"~-	c #353539",
"{-	c #2F2F34",
"]-	c #292B30",
"^-	c #2B2728",
"/-	c #464247",
"(-	c #524A5B",
"_-	c #3F354C",
":-	c #2C203A",
"<-	c #291B35",
"[-	c #271934",
"}-	c #251734",
"|-	c #221732",
"1-	c #211633",
"2-	c #342241",
"3-	c #493662",
"4-	c #331F52",
"5-	c #230D47",
"6-	c #200947",
"7-	c #22094B",
"8-	c #250A4C",
"9-	c #28094D",
"0-	c #2E084E",
"a-	c #34094C",
"b-	c #3C0E4D",
"c-	c #410E4C",
"d-	c #461063",
"e-	c #50125B",
"f-	c #501571",
"g-	c #301573",
"h-	c #233A56",
"i-	c #3D543D",
"j-	c #424539",
"k-	c #343A34",
"l-	c #303531",
"m-	c #2E2C28",
"n-	c #2B2717",
"o-	c #665D62",
"p-	c #4A3F4F",
"q-	c #362942",
"r-	c #271B34",
"s-	c #241932",
"t-	c #221733",
"u-	c #201531",
"v-	c #1F1632",
"w-	c #59496E",
"x-	c #453362",
"y-	c #2C174D",
"z-	c #210744",
"A-	c #220745",
"B-	c #250749",
"C-	c #25074A",
"D-	c #26094F",
"E-	c #290B54",
"F-	c #2E0A57",
"G-	c #380B59",
"H-	c #440E57",
"I-	c #4E1050",
"J-	c #5C1772",
"K-	c #6B1A6D",
"L-	c #421A7C",
"M-	c #334F5F",
"N-	c #546A2F",
"O-	c #424F25",
"P-	c #3A4325",
"Q-	c #37381F",
"R-	c #3D351F",
"S-	c #5D514A",
"T-	c #695C63",
"U-	c #443849",
"V-	c #2F243D",
"W-	c #271D39",
"X-	c #231B34",
"Y-	c #221A34",
"Z-	c #211934",
"`-	c #201834",
" ;	c #1E1633",
"  . + @ # $ % & * = - ; > , ' ) ! ~ { ] ^ / ( _ : < [ } | 1 2 3 ",
"4 5 6 7 8 9 0 a b c d e f g h i j k l m n o p q r s t u v w x y ",
"z A B C D E F G H I J K L M N O P Q R S T U V W X Y Z `  ...+.@.",
"#.$.%.&.*.=.-.;.>.,.'.).!.~.{.].^./.(._.:.<.[.}.|.1.2.3.4.5.6.7.",
"8.9.0.a.b.c.d.e.f.g.h.i.j.k.l.m.n.o.p.q.r.s.t.u.v.w.x.y.z.A.B.C.",
"D.E.F.G.H.I.J.K.L.M.N.O.P.Q.R.S.T.U.V.W.X.Y.Z.`. +.+++@+#+$+%+&+",
"*+=+-+;+>+,+'+)+!+~+{+]+^+/+(+_+:+<+[+}+|+1+2+3+4+5+6+7+8+C.9+0+",
"a+b+c+d+e+f+g+h+i+j+k+l+m+n+o+p+q+r+s+t+u+v+w+x+y+z+A+B+C+D+E+F+",
"G+H+I+J+K+L+M+N+O+P+Q+R+S+T+U+V+W+X+Y+Z+`+ @.@+@@@#@$@%@&@*@=@-@",
";@>@,@'@)@!@~@{@]@^@/@(@_@:@<@[@}@|@1@2@3@4@5@6@7@8@9@0@a@b@c@d@",
"e@f@g@h@i@j@k@l@m@n@o@p@q@r@s@t@u@v@w@x@y@z@A@B@C@D@E@F@G@H@I@J@",
"K@L@M@N@O@P@Q@R@S@T@U@V@W@X@Y@Z@`@ #.#+#@###$#%#&#*#=#-#;#>#,#'#",
")#!#~#{#]#^#/#(#_#:#<#[#}#|#1#2#3#4#5#6#7#8#9#0#a#b#c#d#e#f#g#h#",
"i#j#k#l#m#n#o#p#q#r#s#t#u#v#w#x#y#z#A#B#C#D#E#F#G#H#I#J#K#L#M#N#",
"O#P#Q#R#S#T#U#V#W#X#Y#Z#`# $.$+$@$#$$$%$&$*$=$-$;$>$,$'$)$!$~${$",
"]$^$/$($_$:$<$[$}$|$1$2$3$4$5$6$7$8$9$0$a$b$c$d$e$f$g$h$i$j$k$l$",
"m$n$o$p$q$r$s$t$u$v$w$x$y$z$A$B$C$D$E$F$G$H$I$J$K$L$M$N$O$P$Q$R$",
"S$T$U$V$W$X$Y$t$c@w$Z$`$ %.%+%@%#%$%%%&%*%=%-%;%>%,%'%)%!%~%{%]%",
"^%/%(%_%:%<%[%}%|%1%1%2%3%4%5%6%7%8%9%0%a%b%c%d%e%f%g%h%i%j%k%l%",
"m%n%o%p%q%r%s%t%u%v%v%w%x%y%z%A%B%C%D%E%F%G%H%I%J%K%L%M%N%O%P%Q%",
"R%S%T%U%V%W%X%Y%Z%`% &.&+&@&#&$&%&&&*&=&-&;&>&,&'&)&!&~&{&]&^&/&",
"(&_&:&<&[&}&|&1&2&3&4&5&6&7&8&9&0&a&b&c&d&e&f&g&h&i&j&k&l&m&n&o&",
"p&q&r&s&t&u&v&w&x&y&z&A&B&C&D&E&F&G&H&I&J&K&L&M&N&O&P&Q&R&S&T&U&",
"V&W&X&Y&Z&`& *.*+*@*#*$*%*&***=*-*;*>*,*'*)*!*~*{*]*^*/*(*_*:*<*",
"[*}*|*1*2*3*4*5*6*7*8*9*0*a*b*c*d*e*f*g*h*i*j*k*l*m*n*n*o*p*q*r*",
"s*t*u*v*w*x*y*z*A*B*C*D*E*F*G*H*I*J*K*h*L*M*N*O*P*Q*R*S*T*U*V*W*",
"X*Y*Z*`* =.=+=@=#=$=%=&=*===-=;=>=,='=)=!=~={=G+]=^=/=(=_=:=<=[=",
"}=|=1=2=3=4=5=6=7=8=9=0=a=b=c=d=e=f=g=h=i=j=k=l=m=n=o=p=q=r=s=t=",
"u=v=w=x=y=z=A=B=C=D=E=F=G=H=I=J=K=L=M=N=O=P=5 Q=R=S=T=U=V=W=X=Y=",
"Z=`= -.-+-@-#-$-%-&-*-=---;->-,-'-)-!-~-{-]-^-/-(-_-:-<-[-}-|-1-",
"2-3-4-5-6-7-8-9-0-a-b-c-d-e-f-g-h-i-j-k-l-m-n-o-p-q-!*r-s-t-u-v-",
"w-x-y-z-A-B-C-D-E-F-G-H-I-J-K-L-M-N-O-P-Q-R-S-T-U-V-W-X-Y-Z-`- ;"};
