/* XPM */
static char * coin_32_xpm[] = {
"32 32 253 2",
"  	c #2A3405",
". 	c #293405",
"+ 	c #258E2A",
"@ 	c #238728",
"# 	c #1C6E1E",
"$ 	c #175314",
"% 	c #0F3409",
"& 	c #0A1201",
"* 	c #1E6E1E",
"= 	c #248728",
"- 	c #238928",
"; 	c #18651B",
"> 	c #082505",
", 	c #090400",
"' 	c #0A0501",
") 	c #0C0703",
"! 	c #0D0703",
"~ 	c #0F2908",
"{ 	c #1D671B",
"] 	c #248928",
"^ 	c #1F7D24",
"/ 	c #0F4B12",
"( 	c #010100",
"_ 	c #060300",
": 	c #C67E2B",
"< 	c #BE7E35",
"[ 	c #C67F2C",
"} 	c #C88130",
"| 	c #D08833",
"1 	c #D89944",
"2 	c #19110C",
"3 	c #1A110B",
"4 	c #160E09",
"5 	c #1A5016",
"6 	c #227E24",
"7 	c #0D4610",
"8 	c #000000",
"9 	c #030100",
"0 	c #B68932",
"a 	c #BE8934",
"b 	c #C69040",
"c 	c #C79535",
"d 	c #C89847",
"e 	c #C9A04D",
"f 	c #D2A750",
"g 	c #D4A952",
"h 	c #D4A451",
"i 	c #231711",
"j 	c #1F140E",
"k 	c #1D4D16",
"l 	c #227E25",
"m 	c #CD9542",
"n 	c #D69C43",
"o 	c #D69C4D",
"p 	c #CE9C4E",
"q 	c #D09948",
"r 	c #D19A40",
"s 	c #CB9D50",
"t 	c #D5A155",
"u 	c #D5A757",
"v 	c #DCA859",
"w 	c #D5A257",
"x 	c #CE9651",
"y 	c #261A15",
"z 	c #21150F",
"A 	c #1C5118",
"B 	c #A46924",
"C 	c #AE752D",
"D 	c #C68437",
"E 	c #C88C42",
"F 	c #C28A41",
"G 	c #C48845",
"H 	c #B9843B",
"I 	c #BD8340",
"J 	c #C08645",
"K 	c #C88B46",
"L 	c #C68B4C",
"M 	c #CA8E46",
"N 	c #C88644",
"O 	c #1A120E",
"P 	c #20681E",
"Q 	c #042405",
"R 	c #AC682E",
"S 	c #B46C21",
"T 	c #B66D21",
"U 	c #B76F2D",
"V 	c #FFD822",
"W 	c #C1823C",
"X 	c #CA8744",
"Y 	c #CC8B4A",
"Z 	c #D68F4E",
"` 	c #D58E51",
" .	c #D69258",
"..	c #CA8949",
"+.	c #DDA253",
"@.	c #201611",
"#.	c #152E0E",
"$.	c #1A6D1E",
"%.	c #AC611E",
"&.	c #A4591E",
"*.	c #A65814",
"=.	c #A1520E",
"-.	c #A45E16",
";.	c #A85C1E",
">.	c #AB6826",
",.	c #BF7A40",
"'.	c #E08C5C",
").	c #EBA479",
"!.	c #D1854A",
"~.	c #BA7537",
"{.	c #D89C4D",
"].	c #211814",
"^.	c #150E0B",
"/.	c #1F6F1F",
"(.	c #115114",
"_.	c #944619",
":.	c #AC5A12",
"<.	c #A75D14",
"[.	c #B05F15",
"}.	c #B36A29",
"|.	c #B66E27",
"1.	c #B97438",
"2.	c #C67636",
"3.	c #D0814D",
"4.	c #E79D6F",
"5.	c #FFFFFF",
"6.	c #E9A174",
"7.	c #CE8645",
"8.	c #DEA352",
"9.	c #BD7337",
"0.	c #160F0C",
"a.	c #1A5416",
"b.	c #073109",
"c.	c #A45A14",
"d.	c #9C540B",
"e.	c #A55B14",
"f.	c #AF631E",
"g.	c #B7691E",
"h.	c #C1752C",
"i.	c #BF7D3A",
"j.	c #C4844A",
"k.	c #D18C65",
"l.	c #D98E5D",
"m.	c #E59A6F",
"n.	c #D98950",
"o.	c #C08140",
"p.	c #D9A051",
"q.	c #C48034",
"r.	c #12360B",
"s.	c #010E01",
"t.	c #C47C2B",
"u.	c #BC6D22",
"v.	c #B4651C",
"w.	c #BE752B",
"x.	c #D2C587",
"y.	c #C8864D",
"z.	c #DA9656",
"A.	c #DDA15F",
"B.	c #DA9C55",
"C.	c #CE974D",
"D.	c #E3AB56",
"E.	c #CA8C39",
"F.	c #130C09",
"G.	c #0B1302",
"H.	c #BC7423",
"I.	c #C07B2F",
"J.	c #BD6E22",
"K.	c #BE7623",
"L.	c #C77B27",
"M.	c #DBDCA5",
"N.	c #B17125",
"O.	c #BB7B32",
"P.	c #BE7E36",
"Q.	c #CB8944",
"R.	c #C18640",
"S.	c #C6843B",
"T.	c #DB9E48",
"U.	c #C2762E",
"V.	c #0F0906",
"W.	c #AC610C",
"X.	c #AF620C",
"Y.	c #AC6014",
"Z.	c #C07A1D",
"`.	c #BA7821",
" +	c #C68235",
".+	c #C58339",
"++	c #CD8C43",
"@+	c #CD8B43",
"#+	c #CC8A40",
"$+	c #C48035",
"%+	c #DE9F47",
"&+	c #B97328",
"*+	c #0B0502",
"=+	c #B66C2B",
"-+	c #BC7B2A",
";+	c #C47D36",
">+	c #BF8535",
",+	c #C68C8B",
"'+	c #CE8A32",
")+	c #BC7636",
"!+	c #C4813F",
"~+	c #C4863B",
"{+	c #C37F32",
"]+	c #C28335",
"^+	c #E0A041",
"/+	c #BF7825",
"(+	c #AC6713",
"_+	c #AC6E1C",
":+	c #B77F2D",
"<+	c #AE6F1F",
"[+	c #AD691F",
"}+	c #B37614",
"|+	c #B87126",
"1+	c #DC973D",
"2+	c #BE7B33",
"3+	c #BC752E",
"4+	c #BC7C35",
"5+	c #BE842A",
"6+	c #BE7B2E",
"7+	c #B77C23",
"8+	c #AD6F1C",
"9+	c #B86E2B",
"0+	c #BE7624",
"a+	c #BF7E2C",
"b+	c #C78139",
"c+	c #CE8536",
"d+	c #CE833F",
"e+	c #CE8A3C",
"f+	c #E7A54D",
"g+	c #0A0200",
"h+	c #BF802E",
"i+	c #B47323",
"j+	c #B76E21",
"k+	c #B56D21",
"l+	c #C5762E",
"m+	c #C58337",
"n+	c #CD8334",
"o+	c #C57D2B",
"p+	c #0E0C0E",
"q+	c #C4752E",
"r+	c #C47423",
"s+	c #C08136",
"t+	c #C47A1C",
"u+	c #C57C34",
"v+	c #C57537",
"w+	c #C67B1C",
"x+	c #CC822B",
"y+	c #CC8833",
"z+	c #C4822B",
"A+	c #B47B2B",
"B+	c #BC822B",
"C+	c #BC7B1B",
"D+	c #B47411",
"                            . . . . . . .                       ",
"                                                                ",
"    + + + + + + + + + + + + + + + + + + + + + + + + + + + +     ",
"    + + + + + + + + + + + + + + + + + + + + + + + + + + + +     ",
"    + + + + + + + + + + + + + + + + + + + + + + + + + + + +     ",
"    + + + + + + + + + @ # $ % & & % $ * = + + + + + + + + +     ",
"    + + + + + + + - ; > , , , , , ' ) ! ~ { ] + + + + + + +     ",
"    + + + + + + ^ / ( _ , : < [ } | 1 2 3 4 5 6 + + + + + +     ",
"    + + + + + ^ 7 8 9 0 a b c d e f g g h i j k l + + + + +     ",
"    + + + + - / 8 8 m n o p q r s t u v w x y z A ] + + + +     ",
"    + + + + ; 8 8 B C < D E F G H I J K L M N y O P + + + +     ",
"    + + + @ Q 8 R S T U V W X Y Z ` V V  .` ..+.@.#.= + + +     ",
"    + + + $.8 8 %.&.*.V =.-.;.>.,.V '.).V !.~.{.].^./.+ + +     ",
"    + + + (.8 _.:.&.V <.[.}.|.1.2.3.4.5.6.V 7.8.9.0.a.+ + +     ",
"    + + + b.8 c.d.V e.f.g.h.V i.j.k.l.m.n.V o.p.q.^.r.+ + +     ",
"    + + + s.8 t.u.v.V V V V V w.x.y.z.A.V B.C.D.E.F.G.+ + +     ",
"    + + + s.8 H.H.I.H.J.K.L.V M.N.O.P.V Q.R.S.T.U.V.& + + +     ",
"    + + + b.8 W.X.Y.S S T Z.V `. +.+V ++@+#+$+%+&+*+% + + +     ",
"    + + + (.8 H.=+-+t.;+>+,+V '+)+V q.!+~+{+]+^+/+, $ + + +     ",
"    + + + $.8 8 (+_+S :+<+[+V }+V V V V V V |+1+, , # + + +     ",
"    + + + @ Q 8 2+3+4+4+5+6+7+8+9+0+a+b+c+d+e+f+_ > @ + + +     ",
"    + + + + ; 8 g+H.S 3+3+h+i+S j+k+l+m+n+o+o+9 ( ; + + + +     ",
"    + + + + - / 8 p+q+H.q+H.r+s+H.H.t+t.t.t.8 8 / - + + + +     ",
"    + + + + + ^ 7 8 g+u+q+v+w+x+y+z+H.i+H.8 8 7 ^ + + + + +     ",
"    + + + + + + ^ / 8 8 8 A+-+B+C+i+D+8 8 8 / ^ + + + + + +     ",
"    + + + + + + + - ; Q 8 8 8 8 8 8 8 8 Q ; - + + + + + + +     ",
"    + + + + + + + + + @ $.(.b.s.s.b.(.$.@ + + + + + + + + +     ",
"    + + + + + + + + + + + + + + + + + + + + + + + + + + + +     ",
"    + + + + + + + + + + + + + + + + + + + + + + + + + + + +     ",
"    + + + + + + + + + + + + + + + + + + + + + + + + + + + +     ",
"                                                                ",
"                      . . . . . . . . . .                       "};
