/* XPM */
static char * exit_32_xpm[] = {
"32 32 5 1",
" 	c #2A3405",
".	c #293405",
"+	c #77623C",
"@	c #5A4723",
"#	c #000000",
"              .......           ",
"                                ",
"  ++++++++++++++++++++++++++++  ",
"  ++++++++++++++++++++++++++++  ",
"  ++++++++++++++++++++++++++++  ",
"  ++++++++++++++++++++++++++++  ",
"  +++++++++++++@++++++++++++++  ",
"  ++++++@++++++@++++++++++++++  ",
"  ++++++@++++++@++++++++++++++  ",
"  ++++++@++++@@@@+++++++++++++  ",
"  ++++++@@+@@@++@+++++++++++++  ",
"  +++++++@@@++++@####+++++++++  ",
"  +++++++@+++###@@########++++  ",
"  +++++++@@######@#########+++  ",
"  ++++++++@###@@@@##########++  ",
"  ++++++##@@@@###@##########++  ",
"  ++++++##@@#####@##########++  ",
"  +++++####@################++  ",
"  +++++#####################++  ",
"  +++++#####################++  ",
"  +++++#####################++  ",
"  +++++#####################++  ",
"  ++++++###################+++  ",
"  ++++++##################++++  ",
"  +++++++################+++++  ",
"  ++++++++#############+++++++  ",
"  +++++++++++######+++++++++++  ",
"  ++++++++++++++++++++++++++++  ",
"  ++++++++++++++++++++++++++++  ",
"  ++++++++++++++++++++++++++++  ",
"                                ",
"           ..........           "};
