/* XPM */
static char * tear_32_xpm[] = {
"32 32 176 2",
"  	c #2A3405",
". 	c #293405",
"+ 	c #258E2A",
"@ 	c #000000",
"# 	c #99CCFF",
"$ 	c #9BCEFF",
"% 	c #93C7FF",
"& 	c #97CBFF",
"* 	c #84BBFC",
"= 	c #8CC0FC",
"- 	c #91C5FF",
"; 	c #95C8FF",
"> 	c #83BCFF",
", 	c #84BAFA",
"' 	c #8BBEFD",
") 	c #90C6FF",
"! 	c #8FC6FF",
"~ 	c #87C2FF",
"{ 	c #85BDFF",
"] 	c #7FB4F8",
"^ 	c #86B9FB",
"/ 	c #8BC0FF",
"( 	c #8DC3FF",
"_ 	c #88C1FF",
": 	c #78B3FF",
"< 	c #80BBFF",
"[ 	c #85BEFF",
"} 	c #7EB2FB",
"| 	c #81B6FC",
"1 	c #85BBFF",
"2 	c #87C0FF",
"3 	c #86C0FF",
"4 	c #7FBBFF",
"5 	c #6EABFE",
"6 	c #6CA9FC",
"7 	c #76B0FF",
"8 	c #7DB3FD",
"9 	c #7FB3FC",
"0 	c #82BAFF",
"a 	c #83BDFF",
"b 	c #7FBAFF",
"c 	c #75B6FF",
"d 	c #6DABFE",
"e 	c #63A1F6",
"f 	c #6DA9FF",
"g 	c #80BAFF",
"h 	c #7BB4FF",
"i 	c #7BB3FE",
"j 	c #7EB8FF",
"k 	c #7EBCFF",
"l 	c #78B5FF",
"m 	c #6EB3FF",
"n 	c #72B6FF",
"o 	c #70B2FF",
"p 	c #6BADFF",
"q 	c #6BABFF",
"r 	c #6FB0FF",
"s 	c #74B5FF",
"t 	c #75B4FF",
"u 	c #77B5FF",
"v 	c #7AB8FF",
"w 	c #79B4FF",
"x 	c #6AAFFD",
"y 	c #6DB4FF",
"z 	c #6EB2FF",
"A 	c #69ADFF",
"B 	c #67A9FF",
"C 	c #6FB3FF",
"D 	c #70B3FF",
"E 	c #71B3FF",
"F 	c #76B4FF",
"G 	c #77B2FF",
"H 	c #63A8F3",
"I 	c #66ABF9",
"J 	c #6DB1FF",
"K 	c #6CAEFF",
"L 	c #66A6FD",
"M 	c #62A4FA",
"N 	c #6CB0FF",
"O 	c #72B3FF",
"P 	c #73B2FF",
"Q 	c #74B2FF",
"R 	c #76B1FF",
"S 	c #66AAF3",
"T 	c #67AAF8",
"U 	c #6FB2FF",
"V 	c #69AAFE",
"W 	c #63A4F8",
"X 	c #6AACFF",
"Y 	c #72B4FF",
"Z 	c #75B2FF",
"` 	c #72B3F7",
" .	c #69ACF2",
"..	c #68AAF4",
"+.	c #77B8FF",
"@.	c #6EACFF",
"#.	c #66A7FB",
"$.	c #66A8FC",
"%.	c #75B8FF",
"&.	c #76B5FF",
"*.	c #72B1FF",
"=.	c #78B7FA",
"-.	c #6FB0F4",
";.	c #6BABF3",
">.	c #70B0FA",
",.	c #71B0FF",
"'.	c #6CADFF",
").	c #65A7FB",
"!.	c #65A9FE",
"~.	c #69ABFF",
"{.	c #6EB0FF",
"].	c #73B4FF",
"^.	c #6FAEFD",
"/.	c #82BEFD",
"(.	c #78B5F6",
"_.	c #72AEF4",
":.	c #72B1F8",
"<.	c #78B7FF",
"[.	c #66A8FE",
"}.	c #63A5F9",
"|.	c #6EAFFF",
"1.	c #8AC5FF",
"2.	c #7FBBFA",
"3.	c #78B3F5",
"4.	c #78B3F9",
"5.	c #7BB5FE",
"6.	c #7CB7FF",
"7.	c #82BFFF",
"8.	c #61A2F4",
"9.	c #63A4F6",
"0.	c #6DAEFF",
"a.	c #77B9FF",
"b.	c #87BFFC",
"c.	c #7FB6F6",
"d.	c #79B2F5",
"e.	c #7BB4FB",
"f.	c #81BAFF",
"g.	c #81BCFF",
"h.	c #7BBAFF",
"i.	c #65A4F4",
"j.	c #62A3F3",
"k.	c #6BACFC",
"l.	c #74B6FF",
"m.	c #8BC2FB",
"n.	c #84BAF6",
"o.	c #7EB5F5",
"p.	c #7FB6F9",
"q.	c #79B7FF",
"r.	c #6CAAF7",
"s.	c #66A5F2",
"t.	c #6BAAF7",
"u.	c #93C6FD",
"v.	c #8CBEF9",
"w.	c #86B9F8",
"x.	c #83B8FA",
"y.	c #85BCFF",
"z.	c #87BDFF",
"A.	c #86BEFF",
"B.	c #8FC9FF",
"C.	c #78B4FC",
"D.	c #6EAAF2",
"E.	c #6BA9F2",
"F.	c #91C2FC",
"G.	c #8BBDF8",
"H.	c #88BBFC",
"I.	c #86BBFD",
"J.	c #88BDFF",
"K.	c #89BFFF",
"L.	c #94CBFF",
"M.	c #8DC6FF",
"N.	c #84BDFF",
"O.	c #78B3F7",
"P.	c #8ABCFB",
"Q.	c #89BEFF",
"R.	c #92C8FF",
"S.	c #8EC6FF",
"                            . . . . . . .                       ",
"                                                                ",
"    + + + + + + + + + + + + + + @ + + + + + + + + + + + + +     ",
"    + + + + + + + + + + + + + + @ + + + + + + + + + + + + +     ",
"    + + + + + + + + + + + + + + @ + + + + + + + + + + + + +     ",
"    + + + + + + + + + + + + + + @ @ + + + + + + + + + + + +     ",
"    + + + + + + + + + + + + + + @ @ + + + + + + + + + + + +     ",
"    + + + + + + + + + + + + + @ @ @ + + + + + + + + + + + +     ",
"    + + + + + + + + + + + + + @ # $ @ + + + + + + + + + + +     ",
"    + + + + + + + + + + + + @ @ % & @ @ + + + + + + + + + +     ",
"    + + + + + + + + + + + + @ * = - ; @ @ + + + + + + + + +     ",
"    + + + + + + + + + + + @ @ > , ' ) ! @ + + + + + + + + +     ",
"    + + + + + + + + + + + @ ~ { ] ^ / ( _ @ + + + + + + + +     ",
"    + + + + + + + + + @ @ : < [ } | 1 2 3 4 @ + + + + + + +     ",
"    + + + + + + + + @ @ 5 6 7 > 8 9 @ 0 a b @ + + + + + + +     ",
"    + + + + + + + @ @ c d e f g h i @ j < k l @ + + + + + +     ",
"    + + + + + + + @ m n o p q r s t t u @ v w @ + + + + + +     ",
"    + + + + + + @ @ x y z A B B C C D E @ F G @ + + + + + +     ",
"    + + + + + + @ H I J E K L M N J D O P Q R @ @ + + + + +     ",
"    + + + + + + @ S T U @ E V W X J Y @ s t Z F @ + + + + +     ",
"    + + + + + @ `  ...@ +.@ @.#.$.A @ %.@ &.P *.@ + + + + +     ",
"    + + + + + @ =.-.;.>.&.t ,.'.).!.~.{.].].*.^.@ + + + + +     ",
"    + + + + + @ /.(._.:.u u l <.'.[.}.$.|.].O @ @ + + + + +     ",
"    + + + + + @ 1.2.3.4.5.6.b 7.s ~.8.9.0.c a.@ + + + + + +     ",
"    + + + + + @ ! b.c.d.e.@ f.g.h.@ i.j.k.l.@ @ + + + + + +     ",
"    + + + + + + @ m.n.o.p.f.@ @ @ q.r.s.t.Y @ + + + + + + +     ",
"    + + + + + + @ u.v.w.x.y.z.A.B.3 C.D.E.@ + + + + + + + +     ",
"    + + + + + + + @ F.G.H.I.J.K.L.M.N.O.@ @ + + + + + + + +     ",
"    + + + + + + + + @ @ P.H.J.Q.R.R.S.@ @ + + + + + + + + +     ",
"    + + + + + + + + + @ @ @ @ @ @ @ @ + + + + + + + + + + +     ",
"                                                                ",
"                      . . . . . . . . . .                       "};
